<svg width="701" height="701" viewBox="0 0 701 701" fill="none" xmlns="http://www.w3.org/2000/svg">
<path d="M391.339 129.158C391.768 124.918 394.688 122.629 398.297 122.995C401.941 123.363 404.344 126.19 403.916 130.429C403.484 134.703 400.567 136.957 396.924 136.588C393.314 136.223 390.907 133.431 391.339 129.158ZM412.77 124.775L417.816 125.284L398.589 148.116L393.543 147.605L412.77 124.775ZM399.677 129.999C399.929 127.512 399.151 126.441 397.959 126.32C396.837 126.207 395.793 127.093 395.541 129.581C395.29 132.068 396.136 133.145 397.258 133.259C398.45 133.379 399.426 132.486 399.677 129.999ZM407.477 142.467C407.906 138.227 410.792 135.935 414.435 136.304C418.079 136.671 420.482 139.498 420.055 143.737C419.623 148.011 416.705 150.265 413.063 149.898C409.419 149.529 407.047 146.74 407.477 142.467ZM415.815 143.31C416.067 140.822 415.254 139.749 414.097 139.632C412.942 139.514 411.931 140.403 411.679 142.892C411.428 145.379 412.24 146.453 413.396 146.569C414.553 146.686 415.565 145.797 415.815 143.31Z" fill="#E0E0E0"/>
<path d="M532.812 110.482C531.268 101.295 535.544 94.1962 543.36 92.8825C551.178 91.5688 557.446 96.8137 559.004 106.081C560.56 115.35 556.35 122.354 548.532 123.668C540.716 124.981 534.354 119.668 532.812 110.482ZM553.846 106.947C552.708 100.179 549.048 96.6497 544.133 97.4755C539.297 98.2886 536.925 102.914 538.05 109.6C539.174 116.289 542.926 119.886 547.763 119.073C552.678 118.249 554.983 113.718 553.846 106.947ZM577.453 87.6502L583.658 86.6086L554.614 149.494L548.409 150.536L577.453 87.6502ZM573.062 131.065C571.52 121.876 575.716 114.793 583.532 113.479C591.349 112.164 597.71 117.476 599.255 126.662C600.799 135.85 596.523 142.948 588.705 144.263C580.888 145.577 574.605 140.252 573.062 131.065ZM594.016 127.544C592.892 120.855 589.14 117.26 584.303 118.074C579.388 118.899 577.083 123.428 578.22 130.198C579.358 136.968 583.016 140.497 587.931 139.671C592.767 138.858 595.14 134.233 594.016 127.544Z" fill="#E0E0E0"/>
<path d="M103.232 306.04C100.7 300.371 102.734 295.362 107.556 293.207C112.428 291.031 117.516 292.86 120.048 298.526C122.601 304.241 120.545 309.204 115.675 311.38C110.851 313.536 105.785 311.756 103.232 306.04ZM114.379 301.06C112.893 297.734 111.137 296.946 109.544 297.657C108.047 298.326 107.367 300.203 108.853 303.529C110.339 306.854 112.189 307.6 113.687 306.931C115.278 306.219 115.864 304.385 114.379 301.06ZM127.135 284.968L133.881 281.955L126.141 324.744L119.394 327.757L127.135 284.968ZM133.276 311.161C130.742 305.493 132.727 300.505 137.601 298.329C142.473 296.153 147.558 297.982 150.088 303.649C152.641 309.364 150.589 314.326 145.718 316.503C140.846 318.677 135.827 316.874 133.276 311.161ZM144.42 306.181C142.935 302.856 141.131 302.088 139.587 302.777C138.04 303.468 137.41 305.323 138.895 308.649C140.381 311.974 142.184 312.741 143.73 312.052C145.275 311.362 145.908 309.505 144.42 306.181Z" fill="#E0E0E0"/>
<path d="M625.734 415.972L632.859 417.929L599.696 446.055L592.571 444.095L625.734 415.972ZM593.886 417.057C595.532 411.071 600.283 408.495 605.378 409.896C610.523 411.31 613.291 415.955 611.645 421.94C609.985 427.976 605.246 430.502 600.102 429.089C595.007 427.687 592.227 423.093 593.886 417.057ZM605.66 420.294C606.626 416.782 605.769 415.058 604.088 414.595C602.505 414.161 600.789 415.179 599.823 418.691C598.859 422.203 599.811 423.955 601.394 424.39C603.075 424.851 604.694 423.805 605.66 420.294ZM613.835 440.099C615.481 434.113 620.182 431.523 625.327 432.938C630.471 434.354 633.237 438.996 631.591 444.982C629.931 451.018 625.194 453.544 620.051 452.131C614.905 450.715 612.175 446.133 613.835 440.099ZM625.606 443.335C626.571 439.823 625.668 438.084 624.036 437.636C622.401 437.189 620.736 438.219 619.77 441.731C618.804 445.243 619.709 446.981 621.343 447.43C622.975 447.877 624.642 446.847 625.606 443.335Z" fill="#E0E0E0"/>
<path d="M356.244 256.539C356.14 253.783 357.676 251.878 360.072 251.787C362.469 251.697 364.167 253.456 364.271 256.237C364.376 259.017 362.815 260.9 360.419 260.991C358.025 261.082 356.348 259.297 356.244 256.539ZM362.306 256.311C362.236 254.442 361.43 253.416 360.135 253.466C358.89 253.512 358.116 254.623 358.184 256.466C358.255 258.311 359.11 259.359 360.355 259.312C361.652 259.263 362.378 258.181 362.306 256.311ZM370.143 251.576L372.492 251.488L361.67 268.696L359.321 268.784L370.143 251.576ZM367.543 264.034C367.439 261.277 368.974 259.373 371.37 259.282C373.766 259.192 375.467 260.974 375.571 263.732C375.674 266.487 374.114 268.393 371.718 268.484C369.321 268.574 367.647 266.789 367.543 264.034ZM373.605 263.806C373.535 261.961 372.704 260.912 371.435 260.96C370.165 261.008 369.413 262.091 369.483 263.962C369.553 265.83 370.385 266.855 371.655 266.808C372.925 266.759 373.675 265.65 373.605 263.806Z" fill="#E0E0E0"/>
<path d="M618.77 257.371C618.666 254.614 620.201 252.709 622.597 252.618C624.995 252.528 626.693 254.288 626.796 257.068C626.901 259.848 625.341 261.731 622.945 261.822C620.55 261.912 618.874 260.127 618.77 257.371ZM624.832 257.142C624.762 255.273 623.956 254.247 622.66 254.298C621.415 254.344 620.642 255.454 620.71 257.298C620.78 259.143 621.636 260.19 622.881 260.144C624.177 260.093 624.904 259.012 624.832 257.142ZM632.669 252.406L635.018 252.318L624.196 269.526L621.847 269.614L632.669 252.406ZM630.069 264.864C629.965 262.107 631.5 260.203 633.896 260.112C636.292 260.022 637.993 261.804 638.096 264.562C638.2 267.317 636.64 269.223 634.244 269.314C631.846 269.406 630.172 267.619 630.069 264.864ZM636.131 264.636C636.061 262.791 635.229 261.742 633.961 261.79C632.69 261.838 631.939 262.921 632.009 264.792C632.079 266.66 632.91 267.685 634.181 267.638C635.451 267.59 636.201 266.481 636.131 264.636Z" fill="#E0E0E0"/>
<path d="M408.341 202.982L419.354 209.005L408.341 215.028L402.318 226.04L396.295 215.028L385.282 209.005L396.295 202.982L402.318 191.969L408.341 202.982Z" fill="#EBEBEB"/>
<path d="M374.742 187.781L378.492 189.832L374.742 191.885L372.691 195.635L370.64 191.885L366.889 189.832L370.64 187.781L372.691 184.031L374.742 187.781Z" fill="#EBEBEB"/>
<path d="M338.147 285.68L341.897 287.731L338.147 289.782L336.096 293.533L334.045 289.782L330.294 287.731L334.045 285.68L336.096 281.93L338.147 285.68Z" fill="#EBEBEB"/>
<path d="M552.5 195.887L559.269 199.589L552.5 203.29L548.799 210.059L545.097 203.29L538.329 199.589L545.097 195.887L548.799 189.119L552.5 195.887Z" fill="#EBEBEB"/>
<path d="M601.815 295.005L607.931 299.707L600.673 302.319L595.971 308.434L593.359 301.176L587.243 296.474L594.501 293.862L599.204 287.746L601.815 295.005Z" fill="#EBEBEB"/>
<path d="M498.551 235.528L503.279 238.113L498.551 240.698L495.966 245.426L493.381 240.698L488.655 238.113L493.381 235.528L495.966 230.8L498.551 235.528Z" fill="#EBEBEB"/>
<path d="M590.223 598.392C593.556 599.839 596.01 602.92 597.24 606.341C598.47 609.761 598.581 613.497 598.172 617.11C597.38 624.098 593.409 631.152 589.133 636.735C583.249 631.6 581.895 622.641 581.494 618.053C580.861 610.801 584.118 597.311 590.223 598.392Z" fill="#FF725E"/>
<path d="M595.975 648.268C595.033 644.318 596.676 639.986 599.709 637.285C602.74 634.584 606.976 633.44 611.024 633.75C612.896 633.893 614.919 634.439 615.991 635.981C616.994 637.422 616.882 639.433 616.068 640.989C615.255 642.544 613.848 643.707 612.362 644.64C607.261 647.839 601.74 649.998 595.975 648.268Z" fill="#FF725E"/>
<path d="M588.428 669.695C588.393 669.686 588.473 669.177 588.638 668.26C588.823 667.251 589.063 665.947 589.35 664.38C590.001 661.137 590.835 656.492 593.356 651.982C595.842 647.484 599.323 644.171 602.253 642.528C603.708 641.686 604.981 641.185 605.881 640.923C606.326 640.773 606.687 640.717 606.926 640.658C607.167 640.607 607.295 640.589 607.299 640.606C607.341 640.72 605.26 641.094 602.439 642.837C599.61 644.529 596.248 647.808 593.802 652.23C591.331 656.646 590.444 661.227 589.705 664.451C589.349 666.078 589.06 667.395 588.834 668.3C588.607 669.207 588.461 669.702 588.428 669.695Z" fill="#263238"/>
<path d="M588.649 608.884C588.666 608.884 588.691 609.099 588.721 609.511C588.749 609.977 588.784 610.574 588.827 611.313C588.911 612.877 589.003 615.143 589.094 617.941C589.275 623.541 589.418 631.28 589.381 639.828C589.343 648.379 589.133 656.118 588.904 661.715C588.789 664.513 588.679 666.777 588.582 668.34C588.532 669.079 588.491 669.675 588.46 670.141C588.426 670.551 588.4 670.767 588.383 670.767C588.365 670.766 588.358 670.55 588.358 670.136C588.365 669.671 588.373 669.072 588.384 668.333C588.424 666.704 588.478 664.455 588.546 661.703C588.683 656.105 588.834 648.372 588.874 639.825C588.909 631.283 588.825 623.548 588.735 617.95C588.691 615.198 588.656 612.947 588.631 611.318C588.627 610.578 588.623 609.981 588.62 609.514C588.623 609.102 588.632 608.884 588.649 608.884Z" fill="#263238"/>
<path d="M585.794 652.522C584.455 644.066 578.757 636.422 571.036 632.724C569.07 631.782 566.502 631.166 564.885 632.629C563.266 634.094 563.629 636.723 564.421 638.758C567.718 647.225 576.57 653.202 585.655 653.095" fill="#FF725E"/>
<path d="M571.989 639.353C572.005 639.322 572.448 639.517 573.239 639.898C573.635 640.086 574.12 640.319 574.649 640.65C575.178 640.98 575.817 641.303 576.445 641.777C577.087 642.231 577.804 642.712 578.5 643.323C579.232 643.892 579.943 644.581 580.687 645.31C582.137 646.803 583.597 648.588 584.843 650.649C586.07 652.722 586.96 654.85 587.581 656.838C587.861 657.842 588.131 658.796 588.272 659.713C588.471 660.618 588.546 661.479 588.626 662.261C588.733 663.042 588.697 663.757 588.724 664.38C588.752 665.004 588.712 665.541 588.676 665.978C588.612 666.854 588.56 667.335 588.525 667.331C588.41 667.327 588.61 665.388 588.267 662.298C588.164 661.528 588.072 660.683 587.857 659.794C587.7 658.894 587.418 657.96 587.132 656.976C586.497 655.028 585.611 652.946 584.406 650.909C583.18 648.885 581.759 647.124 580.351 645.636C579.628 644.91 578.938 644.22 578.228 643.644C577.554 643.027 576.859 642.535 576.237 642.068C573.71 640.258 571.938 639.452 571.989 639.353Z" fill="#263238"/>
<path d="M261.609 179.372C263.325 179.372 282.378 183.949 287.731 193.392C293.082 202.834 295.396 237.395 295.396 237.395C295.396 237.395 296.934 261.706 293.603 273.377C290.225 285.207 279.364 342.388 275.329 354.025C270.153 368.95 262.813 393.579 262.813 393.579L200.095 349.041L261.609 179.372Z" fill="#FF725E"/>
<path d="M281.543 125.486C278.835 131.344 279.707 138.205 281.3 144.458C282.893 150.711 285.171 156.916 285.126 163.368C285.059 172.85 282.654 185.801 263.447 179.683C251.749 175.957 262.508 210.676 256.189 221.201C254.938 223.282 253.633 225.426 251.653 226.834C246.934 230.19 240.439 228.243 235.027 226.183C233.297 225.524 231.329 224.603 230.932 222.795C230.728 221.866 231.005 220.909 231.279 219.999C240.84 188.269 250.4 156.54 259.96 124.81" fill="#263238"/>
<path d="M248.903 199.589C259.917 196.989 263.3 191.513 263.43 181.827C263.597 169.506 263.597 169.506 263.597 169.506C263.597 169.506 275.787 168.872 278.629 150.716C280.043 141.687 281.272 127.093 280.483 114.998C279.772 104.111 268.461 84.9107 257.613 86.0828L227.822 100.577C224.528 100.933 222.052 103.751 222.124 107.064L224.438 177.448" fill="#FFBEA9"/>
<path d="M273.509 127.586C273.555 128.816 272.553 129.867 271.27 129.94C269.99 130.012 268.912 129.077 268.867 127.847C268.821 126.617 269.823 125.564 271.103 125.492C272.386 125.42 273.463 126.358 273.509 127.586Z" fill="#263238"/>
<path d="M277.268 123.302C277.062 123.693 275.013 122.644 272.567 123.183C270.113 123.68 268.636 125.475 268.294 125.199C268.13 125.078 268.281 124.419 268.919 123.614C269.546 122.815 270.719 121.915 272.246 121.591C273.773 121.27 275.199 121.618 276.082 122.1C276.982 122.58 277.373 123.122 277.268 123.302Z" fill="#263238"/>
<path d="M249.463 127.325C249.51 128.555 248.507 129.606 247.224 129.679C245.944 129.751 244.866 128.814 244.82 127.586C244.774 126.358 245.776 125.304 247.058 125.232C248.34 125.158 249.417 126.096 249.463 127.325Z" fill="#263238"/>
<path d="M252.455 125.883C252.058 126.125 250.623 124.167 248.008 123.412C245.404 122.62 243.081 123.467 242.894 123.051C242.797 122.861 243.272 122.353 244.294 121.961C245.298 121.567 246.878 121.36 248.504 121.841C250.131 122.325 251.321 123.349 251.925 124.22C252.543 125.098 252.646 125.776 252.455 125.883Z" fill="#263238"/>
<path d="M261.802 141.779C261.79 141.636 263.346 141.364 265.869 141.036C266.509 140.968 267.113 140.839 267.221 140.403C267.371 139.941 267.102 139.252 266.791 138.508C266.185 136.961 265.553 135.341 264.888 133.641C262.245 126.713 260.332 121.015 260.612 120.911C260.892 120.808 263.262 126.338 265.903 133.267C266.538 134.976 267.147 136.604 267.726 138.163C267.97 138.889 268.387 139.712 268.064 140.672C267.893 141.151 267.424 141.498 267.014 141.61C266.604 141.737 266.244 141.744 265.928 141.763C263.387 141.906 261.812 141.922 261.802 141.779Z" fill="#263238"/>
<path d="M263.597 169.683C263.597 169.683 251.388 170.497 239.275 163.253C239.275 163.253 245.368 176.212 263.53 174.473L263.597 169.683Z" fill="#E4977C"/>
<path d="M261.4 147.869C260.158 146.008 258.281 144.768 256.587 144.688C255.412 144.632 254.309 145.148 253.765 146.261C253.221 147.373 253.329 149.115 254.167 150.425C255.111 151.901 256.716 152.497 257.964 152.26C259.213 152.023 260.183 151.123 261.099 150.217C261.351 149.966 261.609 149.704 261.734 149.319C261.858 148.934 261.816 148.393 261.536 148.005" fill="#E4977C"/>
<path d="M254.433 143.528C254.841 143.503 254.853 146.223 257.184 148.147C259.511 150.077 262.409 149.766 262.43 150.146C262.468 150.315 261.787 150.676 260.563 150.711C259.363 150.754 257.61 150.373 256.183 149.195C254.762 148.015 254.147 146.437 254.052 145.323C253.947 144.187 254.248 143.513 254.433 143.528Z" fill="#263238"/>
<path d="M254.642 114.325C254.33 114.978 251.872 114.412 248.914 114.475C245.953 114.479 243.51 115.103 243.182 114.456C243.038 114.148 243.512 113.551 244.53 112.99C245.539 112.428 247.109 111.954 248.884 111.931C250.659 111.913 252.239 112.351 253.261 112.889C254.292 113.427 254.78 114.013 254.642 114.325Z" fill="#263238"/>
<path d="M278.039 117.807C277.491 118.375 275.348 117.781 272.77 117.748C270.195 117.643 268.009 118.123 267.507 117.527C267.287 117.238 267.632 116.669 268.587 116.132C269.527 115.596 271.1 115.16 272.871 115.207C274.642 115.256 276.176 115.773 277.072 116.358C277.981 116.944 278.28 117.53 278.039 117.807Z" fill="#263238"/>
<path d="M183.355 184.608C187.313 178.21 200.092 162.875 204.616 152.31C207.844 144.775 210.275 118.329 217.158 104.717C224.041 91.1033 232.149 85.5977 240.102 83.4554C248.056 81.3146 254.021 84.2195 257.615 87.4329C261.208 90.6449 262.432 99.9962 262.432 99.9962C262.432 99.9962 243.245 104.263 236.784 115.204C229.36 127.771 227.561 134.093 227.561 134.093L225.16 140.967C225.16 140.967 227.407 154.275 228.234 160.851C229.061 167.428 227.742 173.538 222.329 176.206L211.44 183.902C211.44 183.902 217.351 247.512 216.694 248.012C215.069 249.253 201.442 246.502 189.117 243.675C186.722 243.125 185.419 220.682 185.419 220.682L181.817 241.694L172.545 239.582C172.545 239.582 175.267 197.685 183.355 184.608Z" fill="#263238"/>
<path d="M262.076 100.08C262.076 100.08 273.945 98.9251 278 111.315C279.833 116.92 281.233 133.109 281.233 133.109C281.233 133.109 282.838 120.257 282.246 112.918C281.655 105.58 277.994 96.3048 272.371 91.1678C266.903 86.1725 262.292 83.8298 252.513 84.4214C252.513 84.4214 256.407 86.1893 258.91 89.8962C260.162 91.7525 260.465 93.1068 262.076 100.08Z" fill="#263238"/>
<path d="M227.695 135.049C227.494 131.032 223.118 128.352 219.637 130.364C217.725 131.468 216.264 133.691 216.439 137.955C216.908 149.328 228.229 146.512 228.236 146.185C228.239 145.982 227.929 139.753 227.695 135.049Z" fill="#FFBEA9"/>
<path d="M224.584 142.018C224.532 141.985 224.391 142.166 224.062 142.332C223.742 142.495 223.184 142.621 222.583 142.424C221.363 142.032 220.272 140.166 220.134 138.119C220.062 137.086 220.239 136.091 220.571 135.259C220.884 134.413 221.398 133.81 221.998 133.677C222.594 133.512 223.037 133.857 223.19 134.171C223.355 134.483 223.292 134.713 223.354 134.731C223.388 134.757 223.591 134.53 223.479 134.063C223.423 133.841 223.278 133.577 223.002 133.369C222.72 133.159 222.314 133.062 221.895 133.126C221.02 133.222 220.264 134.062 219.897 134.973C219.483 135.892 219.26 137.01 219.34 138.171C219.507 140.459 220.769 142.557 222.433 142.963C223.242 143.14 223.899 142.871 224.232 142.588C224.574 142.295 224.623 142.038 224.584 142.018Z" fill="#E4977C"/>
<path d="M221.753 98.2171C214.726 108.037 209.92 119.435 207.799 131.323C206.464 138.802 206.015 146.879 201.481 152.975C199.099 156.179 195.695 158.643 193.939 162.228C192.028 166.129 192.311 170.891 190.075 174.613C187.637 178.672 182.78 180.586 179.605 184.098C173.628 190.71 174.953 200.916 172.51 209.488C170.957 214.942 167.73 219.907 163.376 223.54C161.885 224.785 160.068 226.415 160.623 228.276C160.959 229.401 162.071 230.086 163.117 230.619C166.559 232.374 169.733 239.086 173.528 239.805C174.313 219.364 184.237 194.813 194.996 177.415C201.136 167.484 207.912 157.56 210.336 146.137C211.932 138.617 211.546 130.826 212.383 123.184C213.22 115.542 215.567 107.584 221.349 102.516" fill="#263238"/>
<path d="M218.353 149.279C218.21 149.449 217.17 148.967 215.799 147.445C214.486 145.923 212.871 143.241 212.509 139.474C212.338 137.61 212.512 135.477 213.254 133.348C213.986 131.231 215.229 129.186 216.757 127.321C218.286 125.448 220.077 123.731 221.955 122.057C223.845 120.377 225.883 118.727 228.051 117.148C232.387 113.987 236.831 111.415 241.032 109.441C245.267 107.448 249.139 106.168 252.145 104.721C255.175 103.315 257.344 101.781 258.691 100.516C260.047 99.263 260.699 98.4021 260.946 98.5395C261.141 98.6377 260.911 99.7593 259.767 101.446C258.641 103.134 256.435 105.202 253.359 106.999C250.303 108.841 246.45 110.402 242.525 112.456C238.563 114.518 234.358 117.068 230.198 120.099C228.119 121.614 226.149 123.175 224.304 124.751C222.454 126.337 220.741 127.893 219.323 129.496C217.902 131.094 216.787 132.751 216.082 134.428C215.379 136.094 215.1 137.779 215.088 139.352C215.082 142.516 216.115 145.02 216.964 146.632C217.852 148.239 218.539 149.075 218.353 149.279Z" fill="#263238"/>
<path d="M222.971 149.785C222.959 149.808 222.766 149.718 222.409 149.526C222.039 149.351 221.544 149.014 220.919 148.557C219.698 147.621 218.099 145.945 216.912 143.418C215.737 140.926 214.999 137.466 215.939 133.838C216.857 130.197 219.518 126.875 222.752 124.21C226.016 121.532 229.392 119.411 232.443 117.45C235.515 115.522 238.347 113.894 240.76 112.592C243.171 111.288 245.159 110.302 246.546 109.649C247.238 109.321 247.782 109.078 248.154 108.921C248.525 108.764 248.726 108.693 248.737 108.715C248.761 108.764 248.018 109.172 246.675 109.903C245.33 110.632 243.384 111.685 241.012 113.042C238.64 114.398 235.844 116.066 232.805 118.018C229.792 119.997 226.42 122.144 223.222 124.77C220.047 127.388 217.495 130.57 216.591 134.01C215.663 137.437 216.306 140.772 217.384 143.206C218.472 145.673 219.961 147.356 221.101 148.339C222.253 149.323 223.013 149.715 222.971 149.785Z" fill="#455A64"/>
<path d="M245.545 82.7222C245.527 82.6493 247.003 82.3941 249.278 82.9675C251.531 83.5269 254.557 84.8336 257.266 87.1805C259.995 89.5583 261.39 92.6582 261.904 94.9112C262.164 96.0496 262.247 96.9917 262.244 97.6409C262.248 98.29 262.194 98.6461 262.149 98.6461C262.017 98.6531 262.032 97.2147 261.404 95.043C260.78 92.8937 259.378 89.9888 256.783 87.7301C254.187 85.4785 251.283 84.1298 249.14 83.4667C246.978 82.7839 245.545 82.8498 245.545 82.7222Z" fill="#455A64"/>
<path d="M216.739 144.731C216.783 144.779 216.212 145.264 215.423 146.33C214.65 147.388 213.668 149.104 213.326 151.433C212.981 153.728 213.419 156.676 215.193 159.212C216.898 161.708 220.156 163.779 223.695 163.343C225.433 163.139 227.061 162.368 228.198 161.188C229.348 160.009 230.009 158.479 230.346 156.985C230.991 153.968 230.647 151.03 229.642 148.939C228.642 146.809 226.971 145.657 225.775 145.171C224.55 144.686 223.78 144.741 223.789 144.665C223.789 144.644 223.975 144.613 224.333 144.62C224.69 144.623 225.221 144.693 225.875 144.905C227.155 145.326 228.98 146.475 230.106 148.709C231.23 150.91 231.644 153.942 231.005 157.129C230.667 158.712 229.977 160.372 228.714 161.683C227.459 162.998 225.674 163.845 223.782 164.066C221.881 164.302 219.981 163.853 218.415 163.005C216.842 162.155 215.553 160.947 214.639 159.592C212.786 156.873 212.388 153.752 212.815 151.351C213.243 148.92 214.338 147.186 215.199 146.154C215.632 145.63 216.026 145.277 216.291 145.042C216.57 144.818 216.723 144.713 216.739 144.731Z" fill="#E0E0E0"/>
<path d="M172.181 638.939L180.158 604.36L152.083 599.659V624.943L159.899 636.451L172.181 638.939Z" fill="#FFBEA9"/>
<path d="M174.77 637.276L173.824 638.777C173.824 638.777 192.699 665.092 189.908 670.075L139.726 637.781L151.155 621.521C156.393 629.778 163.951 635.193 174.77 637.276Z" fill="#FF725E"/>
<g opacity="0.6">
<path d="M152.801 630.132C151.66 629.773 150.286 630.432 149.879 631.559C149.473 632.686 150.132 634.088 151.269 634.468C152.404 634.848 154.078 634.107 154.355 632.941C154.632 631.776 153.769 630.173 152.576 630.076" fill="white"/>
</g>
<g opacity="0.6">
<path d="M139.727 637.781L142.477 633.871L189.567 666.254C189.567 666.254 191.175 668.664 189.911 670.075L139.727 637.781Z" fill="white"/>
</g>
<path d="M173.91 639.029C173.744 639.269 172.447 638.591 170.734 638.604C169.021 638.572 167.717 639.232 167.554 638.991C167.36 638.798 168.668 637.568 170.741 637.59C172.815 637.593 174.109 638.838 173.91 639.029Z" fill="#263238"/>
<path d="M177.774 644.593C177.677 644.867 176.348 644.6 174.848 645.101C173.333 645.558 172.403 646.544 172.166 646.375C171.91 646.266 172.665 644.721 174.541 644.134C176.411 643.531 177.918 644.356 177.774 644.593Z" fill="#263238"/>
<path d="M176.708 652.816C176.452 652.725 176.899 651.281 178.392 650.344C179.878 649.397 181.374 649.611 181.347 649.882C181.356 650.172 180.149 650.413 178.934 651.201C177.702 651.961 176.967 652.949 176.708 652.816Z" fill="#263238"/>
<path d="M103.256 420.196L128.415 423.565L118.733 451.316L91.7497 442.042L90.2229 431.788L103.256 420.196Z" fill="#FFBEA9"/>
<path d="M94.4049 443.922L92.8893 443.28C92.8893 443.28 71.6028 464.52 66.6187 462.71L88.6903 411.885L105.303 419.921C98.5212 425.957 94.6923 433.695 94.4049 443.922Z" fill="#FF725E"/>
<g opacity="0.6">
<path d="M97.6606 422.718C97.819 421.618 97.0086 420.458 95.9151 420.255C94.8215 420.052 93.6354 420.866 93.4574 421.964C93.2793 423.062 94.2102 424.483 95.3192 424.563C96.4282 424.643 97.7685 423.61 97.6788 422.502" fill="white"/>
</g>
<g opacity="0.6">
<path d="M88.6891 411.885L92.6848 413.818L70.0678 461.824C70.0678 461.824 68.1007 463.66 66.6174 462.712L88.6891 411.885Z" fill="white"/>
</g>
<path d="M92.6694 443.395C92.4241 443.279 92.8517 441.989 92.5839 440.422C92.3568 438.847 91.5562 437.751 91.7525 437.566C91.8997 437.358 93.2232 438.372 93.5134 440.276C93.8218 442.177 92.8741 443.549 92.6694 443.395Z" fill="#263238"/>
<path d="M88.1492 447.769C87.8843 447.722 87.9291 446.464 87.2449 445.164C86.6 443.847 85.5569 443.14 85.6747 442.897C85.7378 442.648 87.2646 443.106 88.0847 444.738C88.9189 446.362 88.389 447.868 88.1492 447.769Z" fill="#263238"/>
<path d="M80.4552 448.026C80.5 447.778 81.8894 447.97 82.9718 449.198C84.0639 450.418 84.092 451.821 83.8382 451.837C83.5732 451.888 83.1709 450.817 82.2666 449.823C81.3875 448.808 80.3725 448.284 80.4552 448.026Z" fill="#263238"/>
<path d="M241.535 393.579C239.3 394.684 211.192 503.038 202.346 507.506L184.44 595.62C184.44 595.62 186.069 597.454 185.663 601.325C185.255 605.196 183.626 605.807 183.626 605.807C183.626 605.807 157.753 609.067 147.363 601.529C147.363 601.529 148.585 593.788 149.197 593.176C149.808 592.565 152.253 522.688 158.568 506.39C164.884 490.092 173.235 438.55 172.421 428.16C171.606 417.769 168.753 393.526 169.364 385.786C169.976 378.044 172.624 370.303 172.624 370.303L241.535 393.579Z" fill="#263238"/>
<path d="M252.694 397.958C252.694 397.958 243.16 463.289 234.939 473.917C226.717 484.542 215.511 484.826 212.85 485.276C210.188 485.724 113.37 449.91 113.37 449.91C113.37 449.91 111.795 423.541 114.944 419.606C114.944 419.606 123.603 420 125.57 422.755L175.947 429.839L194.448 373.559L252.694 397.958Z" fill="#263238"/>
<path d="M236.164 397.844C236.189 397.85 236.116 398.238 235.955 398.971C235.772 399.768 235.526 400.832 235.219 402.169C234.531 405.01 233.565 408.998 232.377 413.896C229.894 423.843 226.493 437.465 222.734 452.515C218.991 467.603 215.091 481.179 211.252 490.644C209.372 495.387 207.636 499.137 206.341 501.678C205.713 502.958 205.157 503.918 204.804 504.58C204.441 505.237 204.241 505.575 204.218 505.564C204.196 505.553 204.354 505.19 204.674 504.512C204.985 503.83 205.498 502.851 206.086 501.554C207.3 498.982 208.958 495.21 210.771 490.459C214.475 480.976 218.284 467.424 222.028 452.337C225.866 437.308 229.341 423.704 231.877 413.771C233.157 408.897 234.2 404.928 234.943 402.102C235.306 400.78 235.596 399.726 235.812 398.938C236.02 398.213 236.14 397.837 236.164 397.844Z" fill="#455A64"/>
<path d="M169.535 384.041C169.573 384.053 169.479 384.381 169.429 385.024C169.366 385.666 169.327 386.62 169.346 387.851C169.369 390.311 169.615 393.867 169.988 398.262C170.408 402.677 170.902 407.896 171.451 413.68C171.915 419.48 172.841 425.856 172.903 432.619C173.083 446.193 170.007 458.171 168.156 466.752C167.225 470.998 166.465 474.462 165.918 476.953C165.67 478.102 165.471 479.023 165.318 479.729C165.172 480.363 165.084 480.693 165.06 480.688C165.035 480.684 165.076 480.345 165.174 479.703C165.293 478.989 165.447 478.058 165.641 476.9C166.071 474.47 166.751 470.964 167.651 466.644C169.377 458.021 172.352 446.088 172.173 432.629C172.112 425.919 171.209 419.569 170.78 413.746C170.29 407.953 169.848 402.722 169.474 398.3C169.165 393.902 168.997 390.324 169.062 387.851C169.087 386.614 169.171 385.652 169.283 385.007C169.381 384.358 169.535 384.041 169.535 384.041Z" fill="#455A64"/>
<path d="M124.564 422.371C124.67 422.411 124.106 424.035 123.347 426.696C122.584 429.355 121.68 433.071 121.074 437.243C120.477 441.418 120.296 445.239 120.278 448.005C120.257 450.771 120.339 452.489 120.226 452.497C120.175 452.501 120.1 452.076 120.004 451.302C119.903 450.53 119.818 449.404 119.762 448.012C119.648 445.228 119.748 441.359 120.352 437.138C120.963 432.921 121.959 429.18 122.855 426.542C123.3 425.221 123.701 424.167 124.015 423.453C124.324 422.738 124.517 422.353 124.564 422.371Z" fill="#455A64"/>
<path d="M98.4428 446.496C98.4428 446.698 98.3222 446.861 98.1736 446.861C98.025 446.861 97.9044 446.697 97.9044 446.496C97.9044 446.294 98.025 446.132 98.1736 446.132C98.3222 446.132 98.4428 446.296 98.4428 446.496Z" fill="#455A64"/>
<path d="M149.846 591.802C149.868 591.696 151.811 592.031 154.953 592.526C158.095 593.022 162.444 593.645 167.27 594.135C172.097 594.62 176.482 594.88 179.661 595.023C182.839 595.167 184.809 595.227 184.809 595.335C184.809 595.386 184.317 595.434 183.425 595.476C182.533 595.522 181.242 595.544 179.647 595.539C176.456 595.528 172.045 595.349 167.196 594.862C162.349 594.369 157.991 593.663 154.862 593.035C153.298 592.722 152.037 592.442 151.172 592.217C150.308 591.997 149.835 591.851 149.846 591.802Z" fill="#455A64"/>
<path d="M250.431 403.417C250.741 403.211 268.834 403.417 268.834 403.417C268.834 403.417 282.381 337.407 283.991 317.177C285.6 296.948 250.981 326.55 250.981 326.55L250.431 403.417Z" fill="#FF725E"/>
<path d="M277.702 381.473C278.316 384.528 279.263 387.263 278.873 390.355C278.761 391.246 278.6 392.151 278.169 392.94C277.648 393.892 276.778 394.596 275.93 395.273C273.883 396.906 271.838 398.541 269.791 400.174C269.135 400.699 268.187 401.233 267.53 400.707C267.054 400.327 267.06 399.611 267.15 399.008C267.406 397.283 268.002 395.609 268.892 394.109L271.077 384.939L268.832 380.201L277.702 381.473Z" fill="#FFBEA9"/>
<path d="M225.985 173.377C225.985 173.377 243.568 173.376 253.903 196.347C253.903 196.347 285.049 250.671 285.774 273.848C285.774 273.848 285.412 308.254 279.618 328.535C273.823 348.816 257.148 402.552 257.148 402.552C257.148 402.552 205.013 398.068 194.511 390.463C184.008 382.857 160.83 383.943 160.83 383.943C160.83 383.943 174.954 340.847 192.337 314.771C209.721 288.696 202.84 242.34 202.84 242.34C202.84 242.34 197.974 173.584 225.985 173.377Z" fill="#FF725E"/>
<path d="M250.98 401.956C250.982 401.938 251.271 401.945 251.824 401.976C252.38 401.997 253.2 402.026 254.268 402.022C256.403 402.019 259.534 401.897 263.461 401.513L263.286 401.658C266.904 388.927 272.88 367.188 277.935 342.143C282.007 322.167 284.473 303.841 285.223 290.511C285.596 283.846 285.596 278.44 285.475 274.711C285.39 272.889 285.321 271.452 285.272 270.415C285.258 269.958 285.247 269.589 285.238 269.295C285.234 269.042 285.238 268.912 285.251 268.911C285.264 268.909 285.285 269.037 285.313 269.288C285.341 269.581 285.376 269.947 285.419 270.402C285.502 271.44 285.615 272.875 285.758 274.697C285.966 278.43 286.044 283.852 285.737 290.536C285.118 303.906 282.726 322.283 278.65 342.284C273.588 367.362 267.482 389.087 263.674 401.77L263.634 401.904L263.499 401.916C259.545 402.242 256.408 402.301 254.263 402.235C253.19 402.206 252.367 402.141 251.813 402.084C251.264 402.019 250.979 401.976 250.98 401.956Z" fill="#263238"/>
<path d="M263.384 183.257C263.489 181.298 282.696 211.415 287.71 243.199C289.513 254.631 285.255 268.912 285.255 268.912L249.217 188.011C249.217 188.011 262.432 200.971 263.384 183.257Z" fill="#E0E0E0"/>
<path d="M237.009 176.729C237.009 176.729 238.707 177.841 241.204 180.492C242.437 181.824 243.78 183.651 244.855 186.003C245.95 188.345 246.895 191.109 248.043 194.11L248.06 194.155L248.061 194.206C248.096 196.775 248.61 199.535 249.582 202.337C250.547 205.142 251.931 207.987 253.497 210.9C256.698 216.7 260.161 223.06 263.503 229.828C270.928 244.723 276.585 258.708 280.321 268.943C282.203 274.057 283.582 278.247 284.527 281.143C284.962 282.551 285.307 283.668 285.562 284.495C285.791 285.264 285.9 285.672 285.876 285.679C285.852 285.686 285.697 285.294 285.423 284.54C285.136 283.723 284.747 282.621 284.26 281.233C283.233 278.367 281.779 274.207 279.839 269.122C275.984 258.947 270.262 245.021 262.85 230.152C259.51 223.389 256.079 217.052 252.895 211.221C251.336 208.285 249.951 205.401 248.991 202.537C248.022 199.678 247.519 196.844 247.512 194.208L247.53 194.303C246.41 191.283 245.5 188.509 244.458 186.187C243.436 183.854 242.162 182.045 240.977 180.697C239.798 179.337 238.753 178.393 238.065 177.737C237.744 177.44 237.482 177.199 237.267 177.001C237.086 176.833 237.001 176.74 237.009 176.729Z" fill="#263238"/>
<path d="M261.313 297.28C261.319 297.248 261.613 297.239 262.077 297.467C262.539 297.687 263.14 298.198 263.549 299.041C263.934 299.867 264.152 301.086 263.568 302.264C263.001 303.468 261.493 304.168 260.054 304.008C258.612 303.882 257.271 302.898 256.952 301.607C256.609 300.336 257.064 299.184 257.603 298.449C258.171 297.703 258.861 297.319 259.357 297.195C259.858 297.063 260.144 297.13 260.144 297.164C260.197 297.29 258.948 297.316 258.03 298.742C257.603 299.419 257.292 300.429 257.598 301.413C257.874 302.403 258.921 303.163 260.127 303.281C261.333 303.403 262.509 302.864 262.975 301.947C263.468 301.043 263.361 299.991 263.077 299.244C262.456 297.666 261.236 297.394 261.313 297.28Z" fill="#263238"/>
<path d="M216.115 302.543C216.092 302.601 215.224 302.221 213.614 301.678C212.81 301.412 211.816 301.102 210.638 300.9C209.467 300.702 208.083 300.597 206.663 300.99C205.244 301.378 203.896 302.376 203.01 303.885C202.097 305.368 201.49 307.201 200.726 309.065C199.226 312.823 197.584 316.931 195.859 321.247C195.388 322.417 194.923 323.572 194.484 324.663L194.136 324.165C202.711 323.922 210.121 326.425 214.872 328.967C217.272 330.231 219.081 331.457 220.27 332.368C220.875 332.808 221.306 333.202 221.609 333.45C221.906 333.707 222.054 333.85 222.039 333.868C222.004 333.912 221.344 333.425 220.114 332.584C218.884 331.745 217.051 330.594 214.649 329.401C209.892 327.002 202.578 324.632 194.157 324.89L193.602 324.906L193.808 324.392C194.246 323.301 194.71 322.146 195.179 320.975C196.922 316.666 198.582 312.565 200.099 308.814C200.88 306.964 201.502 305.131 202.495 303.562C202.991 302.786 203.589 302.09 204.288 301.566C204.992 301.051 205.762 300.697 206.527 300.492C208.074 300.102 209.515 300.259 210.712 300.499C211.917 300.746 212.912 301.099 213.71 301.41C214.509 301.723 215.11 302.005 215.515 302.201C215.919 302.403 216.127 302.521 216.115 302.543Z" fill="#263238"/>
<path d="M285.708 286.673C285.691 286.67 285.704 286.495 285.744 286.157C285.798 285.765 285.863 285.275 285.945 284.669C286.152 283.299 286.437 281.409 286.796 279.037C287.582 274.12 288.687 267.217 290.011 258.952L290.006 258.99C290.17 254.809 290.375 250.239 290.469 245.4C290.529 242.995 290.392 240.502 290.197 237.971C290.135 236.704 289.985 235.431 289.806 234.148C289.666 232.86 289.451 231.571 289.2 230.277C287.83 222.563 285.348 215.466 282.661 209.242C279.95 203.015 276.901 197.683 274.017 193.435C271.13 189.183 268.435 186.006 266.513 183.87C265.549 182.804 264.737 182.036 264.224 181.478C263.701 180.93 263.433 180.632 263.45 180.614C263.467 180.596 263.768 180.857 264.325 181.373C264.873 181.897 265.72 182.636 266.719 183.676C268.713 185.761 271.485 188.906 274.443 193.145C277.398 197.381 280.513 202.721 283.277 208.972C286.015 215.224 288.534 222.364 289.918 230.148C290.172 231.453 290.388 232.754 290.528 234.057C290.707 235.352 290.857 236.639 290.918 237.921C291.11 240.475 291.24 242.969 291.171 245.413C291.059 250.271 290.829 254.836 290.633 259.02L290.632 259.039L290.629 259.056C289.2 267.303 288.007 274.191 287.156 279.098C286.726 281.457 286.384 283.339 286.134 284.701C286.015 285.301 285.918 285.787 285.841 286.173C285.77 286.506 285.725 286.675 285.708 286.673Z" fill="#263238"/>
<path d="M259.443 370.299C260.173 369.965 273.589 375.35 276.256 378.794C278.471 381.655 277.994 384.04 277.994 384.04C277.994 384.04 260.869 376.71 257.362 377.205C253.856 377.7 251.443 382.768 249.27 379.492C247.097 376.215 246.763 375.82 246.763 375.82L259.443 370.299Z" fill="#FFBEA9"/>
<path d="M225.805 176.729C230.722 176.719 243.365 186.31 244.069 210.944C244.753 234.895 243.19 278.179 243.19 278.179L263.132 367.932C263.709 368.813 243.745 379.371 234.94 377.106C234.94 377.106 211.971 296.095 210.006 286.109C208.04 276.122 203.782 229.613 205.42 219.133C207.059 208.651 204.506 176.775 225.805 176.729Z" fill="#FF725E"/>
<path d="M237.331 367.424C236.216 366.647 234.4 367.412 234.179 368.754C233.957 370.094 235.432 371.402 236.738 371.025C238.043 370.647 238.588 368.753 237.684 367.739" fill="#E0E0E0"/>
<path d="M237.685 367.738C237.713 367.71 237.886 367.791 238.072 368.068C238.259 368.34 238.419 368.827 238.35 369.43C238.273 370.013 237.964 370.76 237.205 371.195C236.439 371.651 235.344 371.446 234.646 370.808C233.929 370.191 233.597 369.127 233.957 368.314C234.298 367.506 235.005 367.112 235.574 366.966C236.164 366.826 236.666 366.927 236.959 367.08C237.256 367.231 237.357 367.394 237.333 367.425C237.283 367.533 236.668 367.105 235.727 367.46C235.282 367.631 234.78 368 234.588 368.552C234.379 369.092 234.604 369.792 235.132 370.261C235.662 370.729 236.383 370.87 236.893 370.598C237.419 370.343 237.726 369.799 237.842 369.337C238.081 368.361 237.584 367.801 237.685 367.738Z" fill="#263238"/>
<path d="M235.378 362.114C234.285 361.635 232.862 362.679 232.993 363.865C233.123 365.05 234.74 365.761 235.701 365.056C236.662 364.349 236.468 362.594 235.378 362.114Z" fill="#E0E0E0"/>
<path d="M235.378 362.114C235.392 362.076 235.563 362.072 235.816 362.226C236.069 362.376 236.374 362.718 236.527 363.236C236.665 363.739 236.67 364.467 236.167 365.079C235.665 365.714 234.656 365.859 233.89 365.503C233.111 365.179 232.534 364.338 232.662 363.539C232.773 362.753 233.312 362.264 233.775 362.026C234.26 361.787 234.719 361.78 234.999 361.866C235.284 361.949 235.396 362.079 235.378 362.114C235.347 362.225 234.745 361.98 234.034 362.472C233.701 362.704 233.36 363.119 233.329 363.606C233.28 364.085 233.631 364.591 234.182 364.835C234.734 365.077 235.344 364.992 235.664 364.632C236 364.282 236.076 363.75 236.021 363.346C235.903 362.488 235.317 362.211 235.378 362.114Z" fill="#263238"/>
<path d="M233.995 356.726C232.903 356.247 231.48 357.291 231.611 358.477C231.741 359.662 233.357 360.373 234.319 359.668C235.281 358.961 235.087 357.206 233.995 356.726Z" fill="#E0E0E0"/>
<path d="M233.995 356.726C234.009 356.688 234.18 356.684 234.434 356.838C234.686 356.988 234.992 357.331 235.145 357.848C235.282 358.351 235.288 359.079 234.785 359.692C234.283 360.327 233.272 360.471 232.508 360.115C231.728 359.792 231.152 358.95 231.28 358.151C231.39 357.366 231.93 356.876 232.394 356.638C232.879 356.4 233.338 356.394 233.618 356.478C233.901 356.561 234.013 356.691 233.995 356.726C233.964 356.837 233.363 356.592 232.652 357.084C232.318 357.317 231.978 357.732 231.947 358.218C231.898 358.697 232.248 359.204 232.799 359.448C233.352 359.689 233.962 359.605 234.281 359.244C234.618 358.894 234.693 358.362 234.64 357.959C234.522 357.101 233.935 356.823 233.995 356.726Z" fill="#263238"/>
<path d="M205.696 216.801C205.696 216.801 205.71 217.086 205.702 217.637C205.703 218.189 205.652 219.008 205.666 220.086C205.685 222.241 205.751 225.421 205.952 229.52C206.33 237.718 207.126 249.59 208.301 264.299C208.604 267.977 208.92 271.832 209.251 275.852C209.425 277.861 209.602 279.912 209.781 282.003C209.828 282.525 209.874 283.05 209.92 283.577L209.99 284.362L210.156 285.13C210.362 286.151 210.644 287.201 210.906 288.254C213.062 296.68 215.544 305.664 218.132 315.14C223.384 334.077 229.177 354.964 235.289 377.009L234.972 376.744C238.325 377.068 241.97 376.677 245.503 375.774C251.83 374.142 257.737 371.203 262.916 367.641L262.777 368.012C255.328 334.437 248.552 303.9 243.146 279.536L243.138 279.5L243.139 279.463C243.973 259.706 244.653 243.602 245.127 232.408C245.381 226.844 245.577 222.503 245.713 219.525C245.789 218.068 245.846 216.948 245.887 216.165C245.93 215.407 245.974 215.019 245.974 215.019C245.974 215.019 245.987 215.409 245.971 216.169C245.95 216.954 245.919 218.074 245.879 219.532C245.778 222.511 245.632 226.855 245.444 232.422C245.03 243.619 244.435 259.728 243.704 279.487L243.697 279.414C249.147 303.769 255.976 334.294 263.485 367.857L263.538 368.095L263.346 368.228C258.065 371.864 252.13 374.816 245.682 376.485C242.088 377.403 238.358 377.808 234.905 377.473L234.654 377.449L234.588 377.208C228.498 355.156 222.727 334.259 217.497 315.317C214.927 305.834 212.469 296.848 210.334 288.4C210.073 287.34 209.798 286.305 209.584 285.229L209.417 284.432L209.348 283.632C209.303 283.104 209.258 282.579 209.214 282.056C209.041 279.964 208.871 277.913 208.705 275.901C208.391 271.879 208.089 268.022 207.8 264.343C206.69 249.623 205.969 237.743 205.676 229.535C205.516 225.432 205.495 222.248 205.522 220.09C205.53 219.012 205.603 218.19 205.627 217.638C205.661 217.081 205.696 216.801 205.696 216.801Z" fill="#263238"/>
<path d="M600.081 330.593L530.183 279.506C524.617 275.437 517.589 273.917 510.838 275.321L325.281 313.909C312.012 316.668 303.543 329.722 306.43 342.964L335.021 474.088C337.892 487.257 350.907 495.594 364.07 492.699L548.523 452.124C555.425 450.606 561.329 446.167 564.702 439.957L607.114 361.908C612.943 351.18 609.937 337.796 600.081 330.593ZM569.814 364.116C568.371 372.336 560.539 377.829 552.319 376.388C544.099 374.945 538.606 367.114 540.048 358.894C541.49 350.674 549.322 345.181 557.542 346.622C565.762 348.066 571.256 355.898 569.814 364.116Z" fill="#FF725E"/>
<g opacity="0.4">
<path d="M600.081 330.593L530.183 279.506C524.617 275.437 517.589 273.917 510.838 275.321L325.281 313.909C312.012 316.668 303.543 329.722 306.43 342.964L335.021 474.088C337.892 487.257 350.907 495.594 364.07 492.699L548.523 452.124C555.425 450.606 561.329 446.167 564.702 439.957L607.114 361.908C612.943 351.18 609.937 337.796 600.081 330.593ZM569.947 363.979C568.489 372.293 560.567 377.849 552.253 376.391C543.94 374.933 538.626 367.01 540.084 358.698C541.542 350.385 549.639 345.245 557.951 346.703C566.264 348.161 571.406 355.665 569.947 363.979Z" fill="black"/>
</g>
<path d="M593.913 326.293L524.014 275.206C518.448 271.137 511.42 269.617 504.67 271.021L319.112 309.609C305.844 312.368 297.374 325.422 300.261 338.664L328.852 469.788C331.723 482.957 344.738 491.294 357.901 488.399L542.354 447.824C549.256 446.306 555.16 441.867 558.533 435.657L600.945 357.608C606.774 346.881 603.769 333.497 593.913 326.293ZM563.507 359.961C562.081 368.084 554.342 373.514 546.219 372.088C538.096 370.664 532.666 362.923 534.092 354.8C535.516 346.677 543.258 341.247 551.38 342.673C559.502 344.097 564.932 351.838 563.507 359.961Z" fill="#FF725E"/>
<path d="M479.994 254.586C479.878 254.628 473.95 238.62 466.757 218.835C459.56 199.043 453.823 182.969 453.941 182.927C454.057 182.885 459.984 198.889 467.18 218.683C474.372 238.468 480.111 254.544 479.994 254.586Z" fill="#263238"/>
<path d="M530.114 149.244C530.121 149.246 530.114 149.338 530.09 149.518C530.061 149.721 530.025 149.982 529.977 150.311C529.863 151.036 529.702 152.055 529.497 153.354C529.067 156.024 528.453 159.835 527.697 164.533C526.187 173.974 524.174 187.028 522.154 201.474C520.136 215.926 518.492 229.034 517.356 238.526C516.795 243.251 516.341 247.084 516.023 249.771C515.864 251.074 515.74 252.098 515.65 252.827C515.605 253.155 515.57 253.417 515.542 253.62C515.515 253.798 515.497 253.89 515.49 253.89C515.483 253.888 515.484 253.796 515.497 253.616C515.514 253.412 515.535 253.148 515.562 252.817C515.63 252.087 515.727 251.059 515.85 249.752C516.108 247.091 516.513 243.243 517.042 238.49C518.098 228.986 519.692 215.869 521.711 201.411C523.732 186.961 525.796 173.91 527.386 164.48C528.181 159.765 528.845 155.953 529.328 153.323C529.568 152.031 529.757 151.016 529.89 150.294C529.956 149.969 530.008 149.71 530.047 149.509C530.083 149.333 530.107 149.243 530.114 149.244Z" fill="#263238"/>
<path d="M593.987 203.454C594.082 203.534 584.038 215.602 571.558 230.405C559.073 245.213 548.877 257.148 548.782 257.068C548.687 256.988 558.728 244.922 571.214 230.114C583.695 215.311 593.891 203.373 593.987 203.454Z" fill="#263238"/>
<path d="M451.354 263.985C451.274 264.079 445.319 259.133 438.055 252.938C430.788 246.739 424.966 241.64 425.046 241.546C425.126 241.452 431.08 246.397 438.347 252.596C445.61 258.791 451.436 263.891 451.354 263.985Z" fill="#263238"/>
<path d="M604.448 279.674C604.44 279.797 596.593 279.337 586.925 278.646C577.254 277.955 569.424 277.295 569.432 277.17C569.441 277.046 577.286 277.506 586.957 278.197C596.625 278.89 604.457 279.55 604.448 279.674Z" fill="#263238"/>
<path d="M373.329 392.39C374.701 398.528 370.626 403.169 361.291 405.257L342.926 409.364L334.984 373.853L352.334 369.972C361.213 367.987 366.608 370.669 367.843 376.197C368.638 379.749 367.424 382.896 364.873 385.065C369.113 385.449 372.33 387.926 373.329 392.39ZM344.537 378.215L346.409 386.586L354.577 384.759C358.584 383.862 360.449 381.955 359.825 379.165C359.201 376.374 356.711 375.492 352.705 376.389L344.537 378.215ZM364.866 393.376C364.197 390.383 361.597 389.474 357.336 390.426L347.748 392.57L349.709 401.348L359.299 399.204C363.56 398.252 365.548 396.421 364.866 393.376Z" fill="white"/>
<path d="M373.79 365.175L382.007 363.337L388.452 392.152L406.259 388.17L407.755 394.866L381.729 400.686L373.79 365.175Z" fill="white"/>
<path d="M434.358 380.928L417.87 384.615L416.428 392.929L408.006 394.812L415.892 355.76L424.01 353.945L447.83 385.905L439.204 387.834L434.358 380.928ZM430.376 375.265L421.703 362.927L419.112 377.784L430.376 375.265Z" fill="white"/>
<path d="M444.818 367.932C442.425 357.228 448.929 347.731 459.988 345.258C466.127 343.885 471.75 344.97 476.007 348.279L471.819 354.329C468.822 352.125 465.512 351.372 461.96 352.167C455.316 353.652 451.64 359.376 453.138 366.072C454.635 372.768 460.398 376.381 467.043 374.895C470.594 374.1 473.269 372.011 475.03 368.687L481.396 372.377C478.967 377.235 474.341 380.614 468.153 381.997C457.143 384.461 447.211 378.637 444.818 367.932Z" fill="white"/>
<path d="M498.018 360.032L494.362 366.071L496.371 375.049L488.203 376.876L480.261 341.365L488.429 339.538L492.14 356.126L504.155 336.02L513.288 333.977L502.115 353.095L522.092 369.297L512.504 371.44L498.018 360.032Z" fill="white"/>
<path d="M390.36 350.417L391.042 347.118C392.727 347.849 395.054 348.104 397.119 347.643C399.478 347.116 400.26 346.115 400.024 345.059C399.304 341.839 389.797 346.288 388.369 339.898C387.716 336.975 389.53 334.014 394.419 332.919C396.582 332.435 398.908 332.458 400.731 333.108L400.177 336.404C398.378 335.853 396.633 335.78 395.109 336.121C392.749 336.648 392.038 337.736 392.28 338.816C392.989 341.986 402.502 337.564 403.913 343.878C404.556 346.754 402.722 349.744 397.808 350.844C395.082 351.453 392.148 351.257 390.36 350.417Z" fill="white"/>
<path d="M418.269 342.085L410.283 343.871L409.585 347.898L405.506 348.811L409.327 329.895L413.258 329.016L424.795 344.497L420.618 345.432L418.269 342.085ZM416.341 339.344L412.14 333.37L410.886 340.564L416.341 339.344Z" fill="white"/>
<path d="M422.74 326.897L426.72 326.007L429.842 339.963L438.467 338.033L439.193 341.278L426.588 344.097L422.74 326.897Z" fill="white"/>
<path d="M454.028 334.606L454.743 337.801L441.425 340.779L437.578 323.579L450.578 320.671L451.293 323.865L442.251 325.887L443.087 329.621L451.072 327.835L451.765 330.931L443.779 332.717L444.67 336.697L454.028 334.606Z" fill="white"/>
<path d="M387.054 417.483L388.726 424.957L401.815 422.03L402.988 427.281L389.899 430.208L392.203 440.51L385.658 441.973L379.334 413.697L400.704 408.917L401.878 414.168L387.054 417.483Z" fill="white"/>
<path d="M419.187 411.315L420.488 417.131C419.954 417.21 419.541 417.259 419.056 417.367C415.581 418.144 413.704 420.557 414.634 424.718L416.93 434.978L410.628 436.388L405.767 414.656L411.786 413.31L412.428 416.177C413.492 413.734 415.833 412.065 419.187 411.315Z" fill="white"/>
<path d="M420.785 404.425C420.344 402.444 421.575 400.558 423.917 400.034C426.261 399.511 428.161 400.612 428.596 402.551C429.064 404.651 427.833 406.539 425.489 407.062C423.148 407.587 421.228 406.403 420.785 404.425ZM423.017 410.799L429.319 409.39L434.18 431.122L427.878 432.531L423.017 410.799Z" fill="white"/>
<path d="M455.473 394.886L462.176 424.861L456.156 426.207L455.597 423.703C454.446 425.953 452.353 427.4 449.442 428.05C443.301 429.423 437.601 426.117 436.073 419.289C434.546 412.463 438.296 407.041 444.438 405.669C447.102 405.071 449.556 405.415 451.53 406.839L449.171 396.295L455.473 394.886ZM453.564 415.376C452.723 411.619 449.794 409.9 446.683 410.595C443.533 411.301 441.615 414.105 442.454 417.862C443.296 421.621 446.226 423.34 449.375 422.634C452.487 421.938 454.405 419.135 453.564 415.376Z" fill="white"/>
<path d="M484.45 406.859L487.225 419.261L481.326 420.579L480.721 417.872C479.992 420.116 477.964 421.671 474.773 422.385C469.683 423.525 466.021 421.373 465.181 417.617C464.321 413.778 466.433 410.507 473.057 409.025L478.067 407.905C477.461 405.198 475.493 403.983 472.1 404.742C469.796 405.257 467.584 406.559 466.288 408.163L463.043 404.264C465.046 402.035 468.354 400.319 471.826 399.543C478.452 398.061 482.976 400.274 484.45 406.859ZM479.385 413.802L478.888 411.58L474.566 412.546C471.616 413.206 470.932 414.506 471.257 415.959C471.61 417.534 473.176 418.287 475.4 417.79C477.5 417.319 479.1 415.945 479.385 413.802Z" fill="white"/>
<path d="M509.227 391.52L504.57 416.781C503.643 422.503 501.006 424.746 497.089 425.622C494.865 426.12 492.279 425.935 490.585 424.999L491.886 420.001C493.044 420.634 494.495 420.859 495.747 420.579C497.484 420.192 498.283 419.206 498.697 417.078L498.732 416.859L484.422 397.069L490.927 395.615L500.325 408.994L503.166 392.877L509.227 391.52Z" fill="white"/>
<g opacity="0.3">
<path d="M335.991 337.505C335.108 333.554 336.818 330.393 340.254 329.624C343.691 328.856 346.611 330.944 347.503 334.931C348.396 338.917 346.642 342.052 343.204 342.82C339.769 343.588 336.874 341.459 335.991 337.505ZM344.685 335.562C344.086 332.882 342.648 331.615 340.793 332.03C339.007 332.43 338.184 334.238 338.775 336.882C339.367 339.529 340.881 340.815 342.667 340.415C344.523 340 345.285 338.242 344.685 335.562ZM354.741 326.638L358.109 325.885L347.061 353.612L343.693 354.365L354.741 326.638ZM354.301 345.32C353.416 341.367 355.128 338.206 358.563 337.438C361.999 336.669 364.929 338.792 365.813 342.744C366.697 346.695 364.952 349.865 361.516 350.633C358.078 351.401 355.183 349.27 354.301 345.32ZM362.995 343.374C362.403 340.727 360.923 339.434 359.101 339.841C357.28 340.247 356.485 342.014 357.084 344.694C357.684 347.374 359.156 348.633 360.976 348.226C362.798 347.821 363.586 346.019 362.995 343.374Z" fill="white"/>
</g>
<g opacity="0.3">
<path d="M475.215 312.671C474.332 308.719 476.044 305.559 479.48 304.789C482.915 304.021 485.835 306.108 486.728 310.096C487.62 314.082 485.866 317.217 482.431 317.985C478.993 318.755 476.098 316.623 475.215 312.671ZM483.91 310.728C483.31 308.047 481.872 306.781 480.017 307.196C478.231 307.596 477.408 309.403 478.001 312.05C478.592 314.696 480.107 315.981 481.893 315.582C483.748 315.165 484.51 313.409 483.91 310.728ZM493.965 301.804L497.333 301.051L486.287 328.779L482.919 329.532L493.965 301.804ZM493.524 320.483C492.639 316.532 494.351 313.372 497.787 312.604C501.223 311.836 504.152 313.958 505.036 317.909C505.92 321.861 504.175 325.03 500.738 325.798C497.303 326.566 494.407 324.437 493.524 320.483ZM502.217 318.539C501.626 315.893 500.147 314.6 498.324 315.008C496.503 315.415 495.709 317.181 496.308 319.861C496.908 322.541 498.38 323.802 500.2 323.394C502.023 322.987 502.809 321.186 502.217 318.539Z" fill="white"/>
</g>
<path d="M466.747 670.602C475.717 670.602 482.989 663.33 482.989 654.36C482.989 645.389 475.717 638.117 466.747 638.117C457.777 638.117 450.505 645.389 450.505 654.36C450.505 663.33 457.777 670.602 466.747 670.602Z" fill="#263238"/>
<path d="M466.747 663.209C471.634 663.209 475.596 659.247 475.596 654.36C475.596 649.472 471.634 645.51 466.747 645.51C461.859 645.51 457.897 649.472 457.897 654.36C457.897 659.247 461.859 663.209 466.747 663.209Z" fill="#E0E0E0"/>
<path d="M494.797 627.966V638.81L469.61 659.098C469.61 659.098 467.612 660.564 465.736 660.764C463.86 660.964 462.106 659.903 462.106 657.123C462.106 651.843 468.689 636.455 468.689 636.455H473.955V627.964H494.797V627.966Z" fill="#455A64"/>
<path d="M465.332 655.774C465.264 655.822 465.014 655.139 465.735 654.444C466.082 654.126 466.709 653.917 467.344 654.128C467.974 654.319 468.536 654.986 468.528 655.773C468.536 656.561 467.972 657.227 467.344 657.419C466.709 657.632 466.082 657.422 465.735 657.103C465.014 656.409 465.264 655.727 465.332 655.774C465.445 655.756 465.468 656.321 466.047 656.694C466.324 656.871 466.736 656.946 467.114 656.788C467.49 656.639 467.801 656.237 467.797 655.774C467.801 655.312 467.49 654.911 467.114 654.762C466.736 654.604 466.322 654.679 466.047 654.856C465.468 655.228 465.445 655.793 465.332 655.774Z" fill="#263238"/>
<path d="M468.689 636.456C468.689 636.358 470.151 636.261 472.516 636.221C474.881 636.18 478.148 636.208 481.751 636.298C485.225 636.407 488.367 636.507 490.976 636.589C493.336 636.682 494.797 636.767 494.797 636.871C494.797 636.969 493.334 637.066 490.971 637.107C488.606 637.147 485.339 637.119 481.734 637.028C478.262 636.919 475.12 636.819 472.511 636.736C470.151 636.645 468.69 636.558 468.689 636.456Z" fill="#263238"/>
<path d="M269.833 670.767C278.804 670.767 286.075 663.495 286.075 654.525C286.075 645.555 278.804 638.283 269.833 638.283C260.863 638.283 253.591 645.555 253.591 654.525C253.591 663.495 260.863 670.767 269.833 670.767Z" fill="#263238"/>
<path d="M269.833 663.375C274.72 663.375 278.682 659.413 278.682 654.525C278.682 649.638 274.72 645.676 269.833 645.676C264.946 645.676 260.984 649.638 260.984 654.525C260.984 659.413 264.946 663.375 269.833 663.375Z" fill="#E0E0E0"/>
<path d="M297.883 625.035V638.976L272.696 659.264C272.696 659.264 270.698 660.729 268.822 660.929C266.947 661.131 265.193 660.069 265.193 657.29C265.193 652.01 271.775 636.622 271.775 636.622H277.041V625.035H297.883Z" fill="#455A64"/>
<path d="M268.418 655.941C268.35 655.989 268.1 655.306 268.821 654.611C269.169 654.292 269.795 654.082 270.43 654.295C271.06 654.486 271.622 655.153 271.614 655.94C271.622 656.728 271.06 657.394 270.43 657.586C269.795 657.799 269.169 657.589 268.821 657.27C268.1 656.575 268.348 655.894 268.418 655.941C268.531 655.923 268.555 656.488 269.134 656.861C269.408 657.038 269.822 657.113 270.2 656.955C270.576 656.806 270.887 656.404 270.883 655.941C270.887 655.479 270.576 655.078 270.2 654.929C269.822 654.771 269.408 654.846 269.134 655.023C268.555 655.393 268.531 655.959 268.418 655.941Z" fill="#263238"/>
<path d="M271.775 636.622C271.775 636.523 273.237 636.427 275.602 636.386C277.968 636.345 281.234 636.373 284.837 636.463C288.311 636.573 291.453 636.672 294.062 636.755C296.422 636.847 297.883 636.933 297.883 637.037C297.883 637.135 296.422 637.232 294.057 637.272C291.692 637.313 288.425 637.285 284.821 637.194C281.348 637.084 278.206 636.985 275.597 636.902C273.236 636.811 271.775 636.725 271.775 636.622Z" fill="#263238"/>
<path d="M347.102 552.206C342.282 552.206 337.927 549.127 336.355 544.516L288.97 405.573L540.338 446.202L534.566 531.051C534.208 536.283 529.992 540.482 524.762 540.819L347.832 552.185C347.587 552.197 347.344 552.206 347.102 552.206ZM293.13 409.084L339.008 543.607C340.253 547.257 343.822 549.633 347.651 549.382L524.579 538.016C528.414 537.769 531.504 534.691 531.766 530.856L537.366 448.56L293.13 409.084Z" fill="#455A64"/>
<path d="M300.379 438.288L289.862 430.275L279.479 400.065L270.376 394.792L271.781 392.367L281.791 398.164L292.237 428.561L302.078 436.06L300.379 438.288Z" fill="#455A64"/>
<path d="M300.01 431.692L299.629 434.469L537.4 467.085L537.781 464.308L300.01 431.692Z" fill="#455A64"/>
<path d="M313.869 472.679L313.703 475.477L536.975 488.719L537.141 485.92L313.869 472.679Z" fill="#455A64"/>
<path d="M534.349 507.924L327.628 513.363L327.702 516.167L534.422 510.729L534.349 507.924Z" fill="#455A64"/>
<path d="M533.088 529.044L336.638 538.544L336.774 541.345L533.223 531.845L533.088 529.044Z" fill="#455A64"/>
<path d="M515.799 538.299L513.006 538.064C515.633 506.759 517.391 474.961 518.227 443.556L521.031 443.631C520.193 475.089 518.433 506.939 515.799 538.299Z" fill="#455A64"/>
<path d="M499.673 539.933L496.869 539.913C496.873 539.251 497.344 473.416 498.176 442.195L500.98 442.269C500.148 473.464 499.677 539.271 499.673 539.933Z" fill="#455A64"/>
<path d="M480.542 437.103L477.737 437.176L480.451 540.31L483.255 540.236L480.542 437.103Z" fill="#455A64"/>
<path d="M457.524 433.921L454.727 434.128L462.748 542.378L465.545 542.171L457.524 433.921Z" fill="#455A64"/>
<path d="M429.206 428.776L426.427 429.149L441.868 544.126L444.647 543.753L429.206 428.776Z" fill="#455A64"/>
<path d="M398.508 423.019L395.751 423.534L418.613 545.875L421.371 545.36L398.508 423.019Z" fill="#455A64"/>
<path d="M362.174 418.261L359.455 418.95L392.024 547.452L394.744 546.762L362.174 418.261Z" fill="#455A64"/>
<path d="M316.628 410.809L313.961 411.676L360.931 556.141L363.598 555.273L316.628 410.809Z" fill="#455A64"/>
<path d="M503.383 630.486C503.363 630.486 503.343 630.486 503.324 630.486L274.049 626.745C273.114 626.729 272.225 626.341 271.577 625.668C270.93 624.992 270.579 624.088 270.603 623.153C270.705 619.042 271.297 598.309 272.894 593.746C273.463 592.121 274.414 589.401 312.485 570.736C316.263 568.884 349.537 552.629 354.127 552.371C358.886 552.106 401.164 550.306 402.962 550.23C404.86 550.163 406.53 551.649 406.612 553.584C406.695 555.519 405.192 557.153 403.259 557.235C402.821 557.253 359.969 559.076 354.646 559.364C348.635 560.649 285.909 590.757 279.374 596.55C278.684 599.53 278.036 609.843 277.711 619.795L503.437 623.478C505.372 623.509 506.916 625.104 506.885 627.04C506.855 628.955 505.292 630.486 503.383 630.486Z" fill="#455A64"/>
<path d="M402.284 624.648L373.169 623.934C367.67 623.66 363.56 622.028 360.915 619.083C358.413 616.293 357.284 612.446 357.565 607.646C357.811 603.39 359.285 599.055 361.824 595.114L389.996 553.458L392.317 555.029L364.164 596.659C361.903 600.168 360.582 604.034 360.363 607.809C360.129 611.834 361.016 614.997 363.002 617.209C365.128 619.577 368.583 620.898 373.273 621.131L402.352 621.844L402.284 624.648Z" fill="#455A64"/>
<path d="M394.205 554.778C370.742 512.512 309.175 402.049 306.085 398.526C304.213 396.859 289.207 391.576 280.201 388.651L281.067 385.985C283.51 386.777 305.011 393.808 308.011 396.491C310.908 399.081 382.362 527.668 396.655 553.418L394.205 554.778Z" fill="#455A64"/>
<path d="M286.685 388.153L271.242 397.536C271.242 397.536 253.402 389.466 251.916 387.553C250.43 385.642 250.005 378.54 256.164 377.207C262.323 375.873 286.685 388.153 286.685 388.153Z" fill="#455A64"/>
<path d="M256.967 383.502C256.926 383.503 256.851 383.24 256.921 382.753C256.991 382.278 257.26 381.556 257.965 380.972C258.645 380.391 259.826 380.029 261.001 380.44C262.164 380.811 263.192 382.046 263.178 383.5C263.192 384.954 262.164 386.189 261.001 386.562C259.826 386.973 258.645 386.611 257.965 386.03C257.262 385.448 256.991 384.724 256.921 384.249C256.851 383.764 256.926 383.499 256.967 383.502C257.026 383.5 257.051 383.761 257.197 384.18C257.34 384.592 257.651 385.181 258.278 385.619C258.885 386.059 259.852 386.286 260.771 385.93C261.682 385.6 262.457 384.629 262.448 383.502C262.457 382.374 261.682 381.403 260.771 381.073C259.852 380.717 258.885 380.944 258.278 381.385C257.65 381.822 257.34 382.411 257.197 382.823C257.051 383.242 257.026 383.502 256.967 383.502Z" fill="#263238"/>
<path d="M274.114 626.132C274.116 625.93 325.348 626.587 388.528 627.601C451.73 628.613 502.945 629.599 502.942 629.799C502.94 630.001 451.719 629.344 388.517 628.33C325.337 627.318 274.111 626.334 274.114 626.132Z" fill="#263238"/>
<path d="M626.796 670.767C626.796 670.969 501.829 671.132 347.709 671.132C193.535 671.132 68.5942 670.968 68.5942 670.767C68.5942 670.565 193.535 670.403 347.709 670.403C501.829 670.401 626.796 670.565 626.796 670.767Z" fill="#263238"/>
<path d="M183.867 153.22L172.963 134.006C177.786 126.177 180.575 116.96 180.575 107.09C180.575 78.7055 157.565 55.6959 129.18 55.6959C100.795 55.6959 77.7858 78.7055 77.7858 107.09C77.7858 135.474 100.795 158.485 129.18 158.485C141.033 158.485 151.939 154.463 160.633 147.723L160.616 147.746L183.867 153.22Z" fill="white"/>
<path d="M183.867 153.22C182.793 152.975 175.413 151.287 160.581 147.894C160.498 147.876 160.446 147.793 160.466 147.711C160.471 147.688 160.481 147.667 160.494 147.65L160.511 147.628L160.727 147.842C157.795 150.114 154.283 152.351 150.156 154.214C146.022 156.047 141.288 157.544 136.06 158.238C133.449 158.572 130.722 158.786 127.921 158.649C126.521 158.569 125.096 158.535 123.658 158.415C122.229 158.199 120.782 157.98 119.314 157.759C113.495 156.61 107.543 154.399 101.993 150.955C96.445 147.523 91.3094 142.862 87.1918 137.135C83.0811 131.419 79.9644 124.642 78.505 117.276C77.0595 109.921 77.1801 102.038 79.112 94.4093C81.0566 86.8062 84.6906 79.3784 90.1303 73.2685L92.2291 70.9594C92.9189 70.1827 93.7419 69.542 94.4906 68.8298C95.2729 68.1568 95.9795 67.3927 96.8207 66.7969L99.2882 64.9518C100.087 64.3069 100.968 63.7854 101.843 63.2624C102.715 62.7339 103.584 62.2053 104.45 61.6796C105.363 61.2365 106.273 60.7949 107.18 60.3533C108.096 59.9313 108.976 59.4322 109.936 59.1279C117.403 56.1641 125.367 55.0355 132.978 55.5865C140.593 56.1347 147.877 58.319 154.127 61.8366C160.397 65.3262 165.684 69.9864 169.764 75.1907C173.858 80.3977 176.742 86.1417 178.526 91.8604C180.3 97.6058 180.781 103.305 180.761 108.579C180.608 113.868 179.647 118.74 178.245 123.014C176.84 127.296 174.995 130.979 173.089 134.077L173.092 133.927C179.98 146.262 183.352 152.301 183.867 153.22C183.341 152.308 179.888 146.316 172.836 134.079C172.808 134.031 172.812 133.972 172.839 133.929C174.713 130.836 176.524 127.167 177.898 122.909C179.27 118.657 180.203 113.82 180.335 108.574C180.334 103.341 179.84 97.6956 178.067 92.0076C176.282 86.3478 173.411 80.6683 169.349 75.5229C165.299 70.3804 160.059 65.779 153.854 62.3371C147.667 58.8672 140.462 56.7179 132.935 56.1837C125.409 55.6468 117.539 56.767 110.164 59.7C109.214 60 108.345 60.4949 107.441 60.9127C106.544 61.3487 105.645 61.7847 104.743 62.2236C103.887 62.7437 103.029 63.2666 102.168 63.7896C101.303 64.3069 100.434 64.8215 99.6443 65.4594L97.2062 67.282C96.3748 67.8694 95.6781 68.6251 94.9042 69.291C94.1653 69.9962 93.3521 70.6271 92.6708 71.3954L90.5972 73.6779C85.2219 79.7149 81.6314 87.053 79.7051 94.5635C77.7927 102.101 77.668 109.893 79.0882 117.164C80.5224 124.444 83.597 131.149 87.6544 136.809C91.7188 142.478 96.7912 147.099 102.274 150.507C107.76 153.928 113.646 156.13 119.408 157.285C120.861 157.509 122.295 157.729 123.71 157.948C125.134 158.071 126.546 158.109 127.934 158.192C130.711 158.338 133.416 158.133 136.004 157.812C141.19 157.142 145.893 155.677 150.004 153.877C154.111 152.045 157.611 149.842 160.54 147.603C160.607 147.551 160.704 147.562 160.756 147.629C160.8 147.685 160.798 147.764 160.756 147.817L160.738 147.839L160.651 147.597C175.439 151.179 182.797 152.961 183.867 153.22Z" fill="#263238"/>
<path d="M114.088 97.3002C113.333 96.895 112.4 96.7506 111.531 96.6412C108.795 96.2949 106.457 97.0731 104.471 99.2504C110.036 102.475 117.604 106.752 123.018 109.84L129.853 105.931C124.934 103.215 118.747 99.8056 114.088 97.3002Z" fill="#FF725E"/>
<g opacity="0.3">
<path d="M114.088 97.3002C113.333 96.895 112.4 96.7506 111.531 96.6412C108.795 96.2949 106.457 97.0731 104.471 99.2504C110.036 102.475 117.604 106.752 123.018 109.84L129.853 105.931C124.934 103.215 118.747 99.8056 114.088 97.3002Z" fill="black"/>
</g>
<path d="M135.022 117.045C134.847 116.9 134.814 116.862 134.771 116.838C133.069 115.856 131.266 113.977 129.542 114.012C128.886 114.026 128.179 114.59 126.483 115.546C123.656 117.14 118.912 119.921 116.072 121.489C113.648 122.826 110.691 123.829 107.93 122.96C106.587 122.536 105.519 121.783 104.104 120.648C114.689 114.511 124.796 108.652 135.017 102.726C134.856 102.267 134.694 101.826 134.543 101.38C133.291 97.6661 134.633 93.5807 137.843 91.3235C141.085 89.0452 145.451 89.2079 148.553 91.7245C151.572 94.1723 152.609 98.391 151.078 101.994C149.535 105.629 145.847 107.752 141.937 107.355C141.267 107.287 140.496 107.477 139.879 107.772C138.701 108.334 137.602 109.056 136.199 109.869C138.578 110.939 140.193 112.638 142.97 112.38C146.808 112.024 150.217 114.804 151.384 118.512C152.525 122.139 151.199 126.089 148.09 128.315C144.964 130.556 140.692 130.507 137.609 128.193C134.568 125.912 133.325 121.917 134.54 118.312C134.68 117.898 134.85 117.497 135.022 117.045ZM142.916 102.807C145.322 102.818 147.211 100.91 147.19 98.4933C147.169 96.1856 145.254 94.2775 142.949 94.2677C140.609 94.2579 138.61 96.2725 138.642 98.6069C138.673 100.902 140.602 102.797 142.916 102.807ZM142.867 125.416C145.162 125.457 147.129 123.569 147.188 121.27C147.249 118.843 145.401 116.906 142.996 116.876C140.675 116.847 138.725 118.691 138.641 120.994C138.557 123.314 140.527 125.375 142.867 125.416Z" fill="#FF725E"/>
<path d="M131.419 109.694C131.313 109.729 131.356 108.889 130.491 108.265C130.077 107.972 129.428 107.826 128.814 108.068C128.206 108.292 127.691 108.941 127.697 109.692C127.69 110.445 128.206 111.094 128.814 111.317C129.427 111.559 130.077 111.413 130.491 111.12C131.358 110.497 131.313 109.659 131.419 109.694C131.454 109.692 131.516 109.875 131.472 110.215C131.43 110.548 131.247 111.057 130.756 111.469C130.282 111.881 129.451 112.14 128.621 111.853C127.798 111.594 127.07 110.72 127.081 109.692C127.072 108.665 127.799 107.793 128.621 107.533C129.451 107.246 130.282 107.505 130.756 107.918C131.248 108.33 131.43 108.839 131.474 109.171C131.516 109.513 131.456 109.695 131.419 109.694Z" fill="#263238"/>
<path d="M138.977 108.195C138.986 108.209 138.763 108.359 138.351 108.614C137.808 108.942 137.228 109.296 136.594 109.678C134.898 110.675 132.926 111.832 130.749 113.111C128.558 114.367 126.575 115.502 124.868 116.481C124.22 116.84 123.627 117.169 123.072 117.478C122.645 117.708 122.406 117.828 122.397 117.814C122.389 117.799 122.613 117.65 123.025 117.394C123.568 117.066 124.15 116.712 124.784 116.33C126.48 115.333 128.451 114.176 130.627 112.897C132.817 111.643 134.799 110.507 136.506 109.53C137.153 109.17 137.748 108.84 138.302 108.533C138.729 108.3 138.969 108.18 138.977 108.195Z" fill="#263238"/>
<path d="M133.839 103.455C133.843 103.462 133.744 103.531 133.552 103.654C133.297 103.813 133.018 103.986 132.702 104.183C131.846 104.701 130.794 105.338 129.553 106.089C126.891 107.693 123.206 109.897 119.077 112.23C115.016 114.536 111.343 116.621 108.515 118.226C107.249 118.933 106.175 119.532 105.3 120.02C104.973 120.196 104.685 120.353 104.42 120.496C104.216 120.603 104.108 120.655 104.104 120.648C104.1 120.641 104.201 120.573 104.394 120.453C104.652 120.297 104.934 120.128 105.252 119.936C106.116 119.429 107.177 118.808 108.428 118.075C111.246 116.453 114.905 114.347 118.953 112.017C123.08 109.685 126.779 107.504 129.464 105.939C130.72 105.215 131.785 104.6 132.652 104.101C132.976 103.92 133.263 103.759 133.525 103.612C133.727 103.503 133.834 103.448 133.839 103.455Z" fill="#263238"/>
</svg>
