<svg width="24" height="24" viewBox="0 0 24 24" fill="none" xmlns="http://www.w3.org/2000/svg">
<path d="M17.9902 1.59586C16.9814 1.48911 15.9675 1.43723 14.9531 1.44058C11.5898 1.44058 9.5 3.58212 9.5 7.03043V9.37125H6.6748C6.3988 9.37106 6.17493 9.5947 6.1748 9.8707V13.7218C6.17462 13.9978 6.39825 14.2216 6.67426 14.2218H9.5V21.9406C9.49982 22.2166 9.72345 22.4404 9.99945 22.4406H13.9775C14.2535 22.4408 14.4774 22.2171 14.4775 21.9411V14.2218H17.294C17.5452 14.2218 17.7575 14.0354 17.7901 13.7863L18.2872 9.9357C18.3229 9.66202 18.1299 9.41116 17.8562 9.37546C17.8346 9.37265 17.8129 9.37125 17.7911 9.37125H14.4775V7.41226C14.4775 6.44254 14.6729 6.03726 15.8857 6.03726L17.9248 6.03629C18.2008 6.03641 18.4246 5.81284 18.4248 5.53684V2.09195C18.4249 1.84097 18.239 1.62882 17.9902 1.59586ZM17.4248 5.03629L15.8857 5.03726C13.7275 5.03726 13.4775 6.39273 13.4775 7.41226V9.87131C13.4774 10.1472 13.701 10.3711 13.977 10.3712H17.2227L16.8545 13.2218H13.9775C13.7015 13.2217 13.4777 13.4453 13.4775 13.7213V21.4406H10.5V13.7218C10.5002 13.4458 10.2766 13.222 10.0006 13.2218H7.1748V10.3712H10C10.276 10.3714 10.4998 10.1478 10.5 9.8718V7.03043C10.5 4.1564 12.165 2.44058 14.9531 2.44058C15.9619 2.44058 16.873 2.49527 17.4248 2.54312V5.03629Z" fill="black"/>
</svg>
