<svg width="43" height="43" viewBox="0 0 43 43" fill="none" xmlns="http://www.w3.org/2000/svg">
<circle cx="21.4999" cy="21.5002" r="8.26923" fill="black"/>
<circle cx="21.2933" cy="21.7068" r="3.51442" fill="white"/>
<rect x="27.2883" y="15.9287" width="2.89423" height="3.78883" transform="rotate(-30.2421 27.2883 15.9287)" fill="black"/>
<rect width="2.89423" height="3.78883" transform="matrix(-0.863905 -0.503654 -0.503654 0.863905 15.5719 15.9287)" fill="black"/>
<rect x="19.4326" y="13.644" width="2.89423" height="3.78883" transform="rotate(-89.2235 19.4326 13.644)" fill="black"/>
<rect width="2.89423" height="3.78883" transform="matrix(0.863905 0.503654 0.503654 -0.863905 27.2883 27.2539)" fill="black"/>
<rect x="15.5719" y="27.2539" width="2.89423" height="3.78883" transform="rotate(149.758 15.5719 27.2539)" fill="black"/>
<rect width="2.89423" height="3.78883" transform="matrix(0.0135527 0.999908 0.999908 -0.0135527 19.4326 29.5391)" fill="black"/>
<path d="M0 21.5C3.9067e-07 17.0313 1.39245 12.6736 3.98372 9.03284C6.575 5.39211 10.2363 2.64929 14.4586 1.18575C18.6809 -0.277793 23.2543 -0.389315 27.5429 0.866689C31.8315 2.12269 35.6221 4.6838 38.3878 8.1939L35.5393 10.4382C33.2402 7.52018 30.0889 5.39105 26.5236 4.3469C22.9584 3.30274 19.1564 3.39545 15.6463 4.61214C12.1362 5.82883 9.09239 8.10902 6.93818 11.1357C4.78398 14.1623 3.62639 17.785 3.62639 21.5H0Z" fill="#FF6A00"/>
<path d="M35.5577 8.88942L35.7644 0H39.4856V7.44231C39.6539 11.6355 37.2115 12.4038 35.9711 12.4038H26.875V8.88942H35.5577Z" fill="#FF6A00"/>
<path d="M43 21.5C43 25.9758 41.6031 30.3401 39.0042 33.9841C36.4053 37.6281 32.7339 40.3701 28.5021 41.8278C24.2703 43.2855 19.6891 43.3862 15.3973 42.1157C11.1056 40.8453 7.31734 38.2671 4.56091 34.7407L7.41801 32.5074C9.70952 35.439 12.8588 37.5823 16.4267 38.6385C19.9945 39.6946 23.803 39.611 27.3211 38.3991C30.8391 37.1873 33.8912 34.9078 36.0518 31.8784C38.2124 28.849 39.3736 25.2209 39.3736 21.5H43Z" fill="#131F81"/>
<path d="M7.2439 34.1106L7.03717 43H3.31601V35.5577C3.14768 31.3645 5.59005 30.5962 6.83044 30.5962H15.9266V34.1106H7.2439Z" fill="#131F81"/>
</svg>
