<svg width="194" height="192" viewBox="0 0 194 192" fill="none" xmlns="http://www.w3.org/2000/svg">
<g filter="url(#filter0_d_16_1119)">
<path d="M7 35.5748C7 27.8686 12.8394 21.4161 20.5074 20.6493L170.507 5.64925C179.338 4.76623 187 11.7005 187 20.5748V155.322C187 163.072 181.097 169.546 173.38 170.259L23.3805 184.122C14.5885 184.935 7 178.016 7 169.186V35.5748Z" fill="#131F81"/>
</g>
<g clip-path="url(#clip0_16_1119)">
<path d="M75.7792 76.3726C78.5728 76.1938 80.6992 73.7766 80.5205 70.983C80.3417 68.1894 77.9244 66.063 75.1309 66.2418C72.3373 66.4206 70.2108 68.8378 70.3896 71.6314C70.5684 74.425 72.9856 76.5514 75.7792 76.3726ZM75.2929 68.7745C76.691 68.685 77.8984 69.7496 77.9877 71.1451C78.0771 72.5406 77.0152 73.7504 75.6171 73.8399C74.2191 73.9294 73.0116 72.8648 72.9223 71.4693C72.833 70.0738 73.8949 68.864 75.2929 68.7745ZM88.6049 78.0949C91.3985 77.9161 93.5249 75.4989 93.3461 72.7053C93.1673 69.9117 90.7501 67.7853 87.9565 67.964C85.1629 68.1428 83.0365 70.5601 83.2153 73.3536C83.394 76.1472 85.8113 78.2737 88.6049 78.0949ZM88.1186 70.4968C89.5167 70.4073 90.7241 71.4719 90.8134 72.8674C90.9027 74.2629 89.8408 75.4727 88.4428 75.5622C87.0447 75.6517 85.8373 74.5871 85.748 73.1916C85.6587 71.796 86.7205 70.5862 88.1186 70.4968ZM101.106 74.7517C103.9 74.5729 106.026 72.1557 105.848 69.3621C105.669 66.5685 103.252 64.4421 100.458 64.6209C97.6644 64.7997 95.538 67.2169 95.7167 70.0105C95.8955 72.8041 98.3128 74.9305 101.106 74.7517ZM100.62 67.1536C102.018 67.0641 103.226 68.1287 103.315 69.5242C103.404 70.9197 102.342 72.1295 100.944 72.219C99.5462 72.3085 98.3388 71.2439 98.2495 69.8484C98.1601 68.4529 99.222 67.2431 100.62 67.1536ZM125.276 87.5861C123.946 86.5217 122.277 86.064 120.588 86.228C118.897 86.4176 117.378 87.2523 116.317 88.5816L107.529 99.5757C106.555 96.8204 103.837 94.9242 100.777 95.12L73.277 96.88C69.7844 97.1035 67.1271 100.127 67.3505 103.617L68.4851 121.346C68.7084 124.836 71.7295 127.496 75.2221 127.273L103.652 125.453L126.309 96.492C128.453 93.7583 127.991 89.7621 125.276 87.5886L125.276 87.5861ZM124.311 94.9261L102.352 122.991L75.0598 124.737C72.9653 124.871 71.1517 123.276 71.0176 121.181L69.883 103.452C69.749 101.358 71.3444 99.5442 73.4389 99.4102L100.937 97.6504C103.229 97.5037 105.217 99.2507 105.364 101.543C105.496 103.599 104.074 105.468 102.074 105.886L87.8558 108.67L88.3431 111.159L102.579 108.371C105.141 107.836 107.107 105.849 107.716 103.404L118.302 90.1635C118.94 89.3648 119.854 88.8613 120.872 88.7478C121.877 88.6377 122.89 88.9239 123.691 89.5668C125.323 90.8738 125.602 93.277 124.311 94.9261ZM81.412 84.9129C81.2779 82.8184 82.8733 81.0048 84.9679 80.8707L92.566 80.3845C94.6606 80.2504 96.4742 81.8459 96.6082 83.9404L96.8514 87.7395L94.3187 87.9016L94.0755 84.1025C94.0308 83.4035 93.4246 82.8726 92.7281 82.9172L85.13 83.4035C84.4335 83.448 83.8999 84.0518 83.9447 84.7509L84.1878 88.5499L81.6551 88.712L81.412 84.9129ZM105.068 77.0413C107.162 76.9073 108.976 78.5027 109.11 80.5972L109.353 84.3963L106.82 84.5584L106.577 80.7593C106.532 80.0603 105.926 79.5295 105.23 79.574L100.539 79.8742C100.025 78.9611 99.3773 78.1328 98.5888 77.4559L105.068 77.0413ZM71.3621 86.8277L68.8294 86.9898L68.5863 83.1907C68.4522 81.0961 70.0477 79.2825 72.1422 79.1485L78.6209 78.7339C77.9252 79.5057 77.388 80.4098 76.9949 81.381L72.3043 81.6812C71.6078 81.7258 71.0743 82.3296 71.119 83.0286L71.3621 86.8277Z" fill="white"/>
</g>
<defs>
<filter id="filter0_d_16_1119" x="0.590909" y="0.527788" width="192.818" height="191.432" filterUnits="userSpaceOnUse" color-interpolation-filters="sRGB">
<feFlood flood-opacity="0" result="BackgroundImageFix"/>
<feColorMatrix in="SourceAlpha" type="matrix" values="0 0 0 0 0 0 0 0 0 0 0 0 0 0 0 0 0 0 127 0" result="hardAlpha"/>
<feOffset dy="1.36364"/>
<feGaussianBlur stdDeviation="3.20455"/>
<feComposite in2="hardAlpha" operator="out"/>
<feColorMatrix type="matrix" values="0 0 0 0 0 0 0 0 0 0 0 0 0 0 0 0 0 0 0.25 0"/>
<feBlend mode="normal" in2="BackgroundImageFix" result="effect1_dropShadow_16_1119"/>
<feBlend mode="normal" in="SourceGraphic" in2="effect1_dropShadow_16_1119" result="shape"/>
</filter>
<clipPath id="clip0_16_1119">
<rect width="60.9095" height="60.9095" fill="white" transform="translate(65 66.8901) rotate(-3.66184)"/>
</clipPath>
</defs>
</svg>
