<svg width="194" height="200" viewBox="0 0 194 200" fill="none" xmlns="http://www.w3.org/2000/svg">
<g filter="url(#filter0_d_17_1121)">
<path d="M7 20.4657C7 11.2788 15.1838 4.2503 24.2654 5.63777L174.265 28.5544C181.59 29.6735 187 35.9729 187 43.3824V177.132C187 186.159 179.085 193.141 170.128 192.015L20.1284 173.151C12.6269 172.208 7 165.829 7 158.268V20.4657Z" fill="#131F81"/>
</g>
<g clip-path="url(#clip0_17_1121)">
<path d="M92.0833 125.006C92.0833 125.615 91.5887 126.11 90.9792 126.11H71.1042C70.4947 126.11 70 125.615 70 125.006C70 124.396 70.4947 123.902 71.1042 123.902H90.9792C91.5887 123.902 92.0833 124.396 92.0833 125.006ZM71.1042 117.277H86.5625C87.172 117.277 87.6667 116.782 87.6667 116.172C87.6667 115.563 87.172 115.068 86.5625 115.068H71.1042C70.4947 115.068 70 115.563 70 116.172C70 116.782 70.4947 117.277 71.1042 117.277ZM71.1042 108.443H82.1458C82.7553 108.443 83.25 107.949 83.25 107.339C83.25 106.73 82.7553 106.235 82.1458 106.235H71.1042C70.4947 106.235 70 106.73 70 107.339C70 107.949 70.4947 108.443 71.1042 108.443ZM96.5 73.1099C81.8875 73.1099 70 84.9973 70 99.6099C70 99.9963 70.0066 100.381 70.0243 100.763C70.0508 101.372 70.5808 101.854 71.1748 101.818C71.7843 101.792 72.2569 101.275 72.2304 100.668C72.215 100.317 72.2083 99.9654 72.2083 99.6121C72.2083 86.2163 83.1065 75.3182 96.5 75.3182C109.894 75.3182 120.792 86.2163 120.792 99.6099C120.792 112.661 110.587 123.321 97.5578 123.879C96.9483 123.906 96.4757 124.42 96.5022 125.03C96.5265 125.624 97.0168 126.088 97.6042 126.088C97.6196 126.088 97.6373 126.088 97.6528 126.088C111.868 125.48 123.002 113.849 123.002 99.6121C123 84.9973 111.113 73.1099 96.5 73.1099ZM97.6042 86.3599C96.9947 86.3599 96.5 86.8545 96.5 87.464V99.5988C96.5 99.9787 96.6965 100.334 97.0168 100.535L105.85 106.067C106.033 106.182 106.237 106.235 106.438 106.235C106.804 106.235 107.164 106.052 107.374 105.718C107.696 105.201 107.539 104.519 107.025 104.197L98.7083 98.9893V87.4662C98.7083 86.8567 98.2137 86.3599 97.6042 86.3599Z" fill="white"/>
</g>
<defs>
<filter id="filter0_d_17_1121" x="0.590909" y="0.417192" width="192.818" height="199.49" filterUnits="userSpaceOnUse" color-interpolation-filters="sRGB">
<feFlood flood-opacity="0" result="BackgroundImageFix"/>
<feColorMatrix in="SourceAlpha" type="matrix" values="0 0 0 0 0 0 0 0 0 0 0 0 0 0 0 0 0 0 127 0" result="hardAlpha"/>
<feOffset dy="1.36364"/>
<feGaussianBlur stdDeviation="3.20455"/>
<feComposite in2="hardAlpha" operator="out"/>
<feColorMatrix type="matrix" values="0 0 0 0 0 0 0 0 0 0 0 0 0 0 0 0 0 0 0.25 0"/>
<feBlend mode="normal" in2="BackgroundImageFix" result="effect1_dropShadow_17_1121"/>
<feBlend mode="normal" in="SourceGraphic" in2="effect1_dropShadow_17_1121" result="shape"/>
</filter>
<clipPath id="clip0_17_1121">
<rect width="53" height="53" fill="white" transform="translate(70 73.1099)"/>
</clipPath>
</defs>
</svg>
