<svg width="192" height="178" viewBox="0 0 192 178" fill="none" xmlns="http://www.w3.org/2000/svg">
<g filter="url(#filter0_d_17_1120)">
<path d="M7 21C7 12.7157 13.7157 6 22 6H170C178.284 6 185 12.7157 185 21V154.636C185 162.921 178.284 169.636 170 169.636H22C13.7157 169.636 7 162.921 7 154.636V21Z" fill="#131F81"/>
</g>
<g clip-path="url(#clip0_17_1120)">
<path d="M124 72.8333V103.703C124 105.15 123.464 106.527 122.507 107.623L115.04 116H111.914L120.78 106.06C121.364 105.407 121.69 104.59 121.69 103.703V72.8333C121.69 70.8967 120.127 69.3333 118.19 69.3333C116.254 69.3333 114.69 70.8967 114.69 72.8333V93.8333C114.69 95.1633 114.247 96.4933 113.337 97.5667L106.104 105.057L104.424 103.423L111.61 96.0033C112.124 95.3733 112.38 94.58 112.38 93.7633C112.38 92.9233 112.054 92.13 111.494 91.4767C110.864 90.7767 110.024 90.38 109.09 90.31C108.18 90.2867 107.27 90.5667 106.57 91.1967L97.5635 99.48C98.0769 100.367 98.3802 101.37 98.3802 102.397V115.953H96.0469V102.397C96.0469 101.417 95.6269 100.483 94.9269 99.83L85.5235 91.1967C84.8469 90.59 83.9602 90.2867 83.0035 90.31C82.0702 90.3567 81.2069 90.7767 80.6002 91.4767C79.4569 92.76 79.4102 94.72 80.5302 96.05L87.6469 103.4L85.9669 105.033L78.7802 97.6133C77.8469 96.5167 77.4035 95.1633 77.3802 93.81H77.3569V72.8333C77.3569 70.8967 75.7935 69.3333 73.8569 69.3333C71.9202 69.3333 70.3569 70.8967 70.3569 72.8333V103.703C70.3569 104.567 70.6835 105.407 71.2669 106.06L80.1335 116H77.0069L69.5402 107.623C68.5602 106.55 68.0469 105.15 68.0469 103.703V72.8333C68.0469 69.6133 70.6602 67 73.8802 67C77.1002 67 79.7135 69.6133 79.7135 72.8333V89.1667C80.6235 88.49 81.7202 88.07 82.8869 88.0233C84.4502 87.93 85.9435 88.4667 87.0869 89.4933L96.0469 97.73L104.984 89.4933C106.15 88.4433 107.644 87.9067 109.207 88C110.374 88.07 111.47 88.4667 112.38 89.1433V72.8333C112.38 69.6133 114.994 67 118.214 67C121.434 67 124.047 69.6133 124.047 72.8333H124ZM93.4102 83.3333H94.8335V85.6667H97.1669V83.3333H98.5902C101.67 83.3333 104.167 80.8367 104.167 77.7567C104.167 75.0033 102.207 72.6933 99.5002 72.25L92.8969 71.1533C91.3335 70.8967 90.1669 69.5433 90.1669 67.9333C90.1669 66.1367 91.6369 64.69 93.4102 64.69H98.5669C100.364 64.69 101.81 66.16 101.81 67.9333V69.3567H104.144V67.9333C104.144 64.8533 101.647 62.3567 98.5669 62.3567H97.1435V60H94.8102V62.3333H93.3869C90.3069 62.3333 87.8102 64.83 87.8102 67.91C87.8102 70.6633 89.7702 72.9733 92.4769 73.4167L99.0802 74.5133C100.644 74.77 101.81 76.1233 101.81 77.7333C101.81 79.53 100.34 80.9767 98.5669 80.9767H93.4102C91.6135 80.9767 90.1669 79.5067 90.1669 77.7333V76.31H87.8335V77.7333C87.8335 80.8133 90.3302 83.31 93.4102 83.31V83.3333Z" fill="white"/>
</g>
<defs>
<filter id="filter0_d_17_1120" x="0.590909" y="0.954545" width="190.818" height="176.454" filterUnits="userSpaceOnUse" color-interpolation-filters="sRGB">
<feFlood flood-opacity="0" result="BackgroundImageFix"/>
<feColorMatrix in="SourceAlpha" type="matrix" values="0 0 0 0 0 0 0 0 0 0 0 0 0 0 0 0 0 0 127 0" result="hardAlpha"/>
<feOffset dy="1.36364"/>
<feGaussianBlur stdDeviation="3.20455"/>
<feComposite in2="hardAlpha" operator="out"/>
<feColorMatrix type="matrix" values="0 0 0 0 0 0 0 0 0 0 0 0 0 0 0 0 0 0 0.25 0"/>
<feBlend mode="normal" in2="BackgroundImageFix" result="effect1_dropShadow_17_1120"/>
<feBlend mode="normal" in="SourceGraphic" in2="effect1_dropShadow_17_1120" result="shape"/>
</filter>
<clipPath id="clip0_17_1120">
<rect width="56" height="56" fill="white" transform="translate(68 60)"/>
</clipPath>
</defs>
</svg>
