<svg width="24" height="24" viewBox="0 0 24 24" fill="none" xmlns="http://www.w3.org/2000/svg">
<path d="M7.50061 9.00013C7.50036 9.00013 7.50079 9.00013 7.50061 9.00013H3.5C3.224 8.99995 3.00018 9.22358 3 9.49952C3 9.49933 3 9.49976 3 9.49952V21.5001C2.99981 21.7761 3.22345 21.9999 3.49939 22.0001C3.4992 22.0001 3.49963 22.0001 3.49939 22.0001H7.5C7.776 22.0003 7.99981 21.7767 8 21.5007C8 21.5005 8 21.5009 8 21.5007V9.50013C8.00018 9.22413 7.77655 9.00031 7.50061 9.00013ZM7 21.0001H4V10.0001H7V21.0001ZM18 9.00013C16.9152 9.00019 15.8607 9.35822 15 10.0187V9.50013C15.0002 9.22413 14.7765 9.00031 14.5006 9.00013C14.5004 9.00013 14.5008 9.00013 14.5006 9.00013H10.5C10.224 8.99995 10.0002 9.22358 10 9.49952C10 9.49933 10 9.49976 10 9.49952V21.5001C9.99981 21.7761 10.2234 21.9999 10.4994 22.0001C10.4993 22.0001 10.4996 22.0001 10.4994 22.0001H14.5C14.776 22.0003 14.9998 21.7767 15 21.5007C15 21.5005 15 21.5009 15 21.5007V16.0001C15 15.1717 15.6716 14.5001 16.5 14.5001C17.3284 14.5001 18 15.1717 18 16.0001V21.5001C17.9998 21.7761 18.2234 21.9999 18.4994 22.0001C18.4993 22.0001 18.4996 22.0001 18.4994 22.0001H22.5C22.776 22.0003 22.9998 21.7767 23 21.5007C23 21.5005 23 21.5009 23 21.5007V14.0001C22.9968 11.2401 20.7601 9.00336 18 9.00013ZM22 21.0001H19V16.0001C19 14.6194 17.8807 13.5001 16.5 13.5001C15.1193 13.5001 14 14.6194 14 16.0001V21.0001H11V10.0001H14V11.2033C14 11.4157 14.1344 11.6049 14.335 11.6749C14.5352 11.7471 14.759 11.6829 14.8907 11.5158C16.2532 9.78895 18.7576 9.49372 20.4844 10.8563C21.4463 11.6154 22.0053 12.7748 22 14.0001V21.0001ZM5.86798 2.00196C5.75036 1.99372 5.63232 1.99311 5.51465 2.00013C4.00537 1.89704 2.6983 3.03699 2.59521 4.54627C2.59106 4.607 2.58899 4.66779 2.58886 4.72864C2.57586 6.2251 3.77844 7.44874 5.2749 7.46174C5.336 7.46229 5.39703 7.4607 5.45801 7.4571H5.48633C6.99273 7.56251 8.29931 6.42676 8.40472 4.92036C8.51013 3.41395 7.37439 2.10737 5.86798 2.00196ZM5.83343 6.45997C5.71795 6.47059 5.60162 6.46967 5.48633 6.4571H5.45801C4.50189 6.53058 3.6673 5.81513 3.59381 4.85901C3.52032 3.90296 4.23578 3.0683 5.19189 2.99482C5.29944 2.98658 5.40747 2.98835 5.51465 3.00013C6.47003 2.91212 7.31592 3.61524 7.40399 4.57062C7.492 5.52607 6.78888 6.37195 5.83343 6.45997Z" fill="black"/>
</svg>
