<svg width="135" height="44" viewBox="0 0 135 44" fill="none" xmlns="http://www.w3.org/2000/svg">
<circle cx="21.4997" cy="21.5" r="8.26923" fill="black"/>
<circle cx="21.293" cy="21.7067" r="3.51442" fill="white"/>
<rect x="27.2881" y="15.9289" width="2.89423" height="3.78883" transform="rotate(-30.2421 27.2881 15.9289)" fill="black"/>
<rect width="2.89423" height="3.78883" transform="matrix(-0.863905 -0.503654 -0.503654 0.863905 15.5718 15.9289)" fill="black"/>
<rect x="19.4324" y="13.644" width="2.89423" height="3.78883" transform="rotate(-89.2235 19.4324 13.644)" fill="black"/>
<rect width="2.89423" height="3.78883" transform="matrix(0.863905 0.503654 0.503654 -0.863905 27.2883 27.2539)" fill="black"/>
<rect x="15.572" y="27.2539" width="2.89423" height="3.78883" transform="rotate(149.758 15.572 27.2539)" fill="black"/>
<rect width="2.89423" height="3.78883" transform="matrix(0.0135527 0.999908 0.999908 -0.0135527 19.4326 29.5388)" fill="black"/>
<path d="M0 21.5C3.9067e-07 17.0313 1.39245 12.6736 3.98372 9.03284C6.575 5.39211 10.2363 2.64929 14.4586 1.18575C18.6809 -0.277793 23.2543 -0.389315 27.5429 0.866689C31.8315 2.12269 35.6221 4.6838 38.3878 8.1939L35.5393 10.4382C33.2402 7.52018 30.0889 5.39105 26.5236 4.3469C22.9584 3.30274 19.1564 3.39545 15.6463 4.61214C12.1362 5.82883 9.09239 8.10902 6.93818 11.1357C4.78398 14.1623 3.62639 17.785 3.62639 21.5H0Z" fill="#FF6A00"/>
<path d="M35.5577 8.88942L35.7644 0H39.4856V7.44231C39.6539 11.6355 37.2115 12.4038 35.9712 12.4038H26.875V8.88942H35.5577Z" fill="#FF6A00"/>
<path d="M43 21.5C43 25.9758 41.6031 30.3401 39.0042 33.9841C36.4053 37.6281 32.7339 40.3701 28.5021 41.8278C24.2703 43.2855 19.6891 43.3862 15.3973 42.1157C11.1056 40.8453 7.31734 38.2671 4.56091 34.7407L7.41801 32.5074C9.70952 35.439 12.8588 37.5823 16.4267 38.6385C19.9945 39.6946 23.803 39.611 27.3211 38.3991C30.8391 37.1873 33.8912 34.9078 36.0518 31.8784C38.2124 28.849 39.3736 25.2209 39.3736 21.5H43Z" fill="#131F81"/>
<path d="M7.24382 34.1106L7.03709 43H3.31594V35.5577C3.1476 31.3645 5.58998 30.5962 6.83036 30.5962H15.9265V34.1106H7.24382Z" fill="#131F81"/>
<path d="M54.9756 34.5002H49.0295L58.318 8.46436H63.877L73.1303 34.5002H67.0787L65.2492 29.0116H56.8403L54.9756 34.5002ZM60.3587 18.6676L58.4939 24.2266H63.6307L61.766 18.6676C61.6253 18.2219 61.4845 17.7646 61.3438 17.2954C61.2031 16.8263 61.1092 16.4393 61.0623 16.1344C61.0154 16.4393 60.9216 16.8263 60.7809 17.2954C60.6636 17.7411 60.5229 18.1985 60.3587 18.6676ZM73.9252 25.3877C73.9252 23.605 74.2771 22.0335 74.9808 20.6731C75.7079 19.3126 76.7047 18.2454 77.9714 17.4714C79.2614 16.6973 80.7274 16.3103 82.3693 16.3103C83.7532 16.3103 84.9377 16.5918 85.9229 17.1547C86.9314 17.7176 87.6234 18.4565 87.9987 19.3713L87.4709 19.7231L87.8931 16.9084H92.9948V33.3744C92.9948 35.4619 92.6077 37.2563 91.8337 38.7574C91.0597 40.2821 89.9572 41.4431 88.5264 42.2406C87.0956 43.0616 85.3716 43.472 83.3544 43.472C80.657 43.472 78.4639 42.7449 76.7751 41.2907C75.0863 39.8599 74.1129 37.9013 73.8549 35.415H79.3435C79.3904 36.4001 79.7657 37.1625 80.4694 37.7019C81.1731 38.2649 82.123 38.5463 83.3193 38.5463C84.6328 38.5463 85.6648 38.1828 86.4154 37.4557C87.1895 36.7285 87.5765 35.7434 87.5765 34.5002V30.7708L88.1746 31.2282C87.7993 32.1429 87.0722 32.8818 85.9932 33.4447C84.9143 34.0077 83.6711 34.2891 82.2638 34.2891C80.6219 34.2891 79.1676 33.9138 77.901 33.1633C76.6578 32.4127 75.6844 31.3689 74.9808 30.0319C74.2771 28.6949 73.9252 27.1469 73.9252 25.3877ZM79.3787 25.2469C79.3787 26.0913 79.5546 26.8419 79.9065 27.4987C80.2583 28.132 80.7391 28.6363 81.349 29.0116C81.9588 29.3869 82.6625 29.5745 83.46 29.5745C84.281 29.5745 84.9964 29.3986 85.6062 29.0468C86.2395 28.6715 86.7203 28.1672 87.0487 27.5339C87.4006 26.8771 87.5765 26.1148 87.5765 25.2469C87.5765 24.3791 87.4006 23.6402 87.0487 23.0304C86.7203 22.3971 86.2395 21.9045 85.6062 21.5527C84.9964 21.2008 84.2692 21.0249 83.4248 21.0249C82.6273 21.0249 81.9236 21.2008 81.3138 21.5527C80.704 21.9045 80.2231 22.3971 79.8713 23.0304C79.5429 23.6637 79.3787 24.4025 79.3787 25.2469ZM97.0695 34.5002V16.9084H102.488V34.5002H97.0695ZM99.7434 14.1641C98.8755 14.1641 98.1367 13.8709 97.5268 13.2845C96.9405 12.6747 96.6473 11.9358 96.6473 11.0679C96.6473 10.2001 96.9405 9.47296 97.5268 8.88656C98.1367 8.30017 98.8755 8.00697 99.7434 8.00697C100.588 8.00697 101.303 8.30017 101.89 8.88656C102.499 9.47296 102.804 10.2001 102.804 11.0679C102.804 11.9358 102.499 12.6747 101.89 13.2845C101.303 13.8709 100.588 14.1641 99.7434 14.1641ZM111.971 34.5002H106.553V7.97179H111.971V34.5002ZM124.198 34.9576C122.439 34.9576 120.868 34.5589 119.484 33.7614C118.123 32.9639 117.044 31.8732 116.247 30.4893C115.473 29.082 115.086 27.4752 115.086 25.6691C115.086 23.8396 115.461 22.2329 116.212 20.849C116.986 19.4416 118.053 18.3392 119.413 17.5417C120.774 16.7442 122.333 16.3455 124.093 16.3455C125.946 16.3455 127.541 16.7325 128.878 17.5065C130.215 18.2571 131.247 19.3361 131.974 20.7434C132.701 22.1273 133.064 23.781 133.064 25.7043V27.0765L117.936 27.1469L118.006 23.8044H127.681C127.681 22.8662 127.365 22.1273 126.731 21.5878C126.098 21.0249 125.23 20.7434 124.128 20.7434C123.213 20.7434 122.462 20.9194 121.876 21.2712C121.313 21.623 120.891 22.1742 120.609 22.9248C120.328 23.652 120.187 24.5902 120.187 25.7395C120.187 27.3814 120.516 28.6011 121.172 29.3986C121.853 30.1726 122.896 30.5597 124.304 30.5597C125.336 30.5597 126.192 30.3837 126.872 30.0319C127.552 29.6801 127.986 29.1875 128.174 28.5542H133.135C132.83 30.501 131.868 32.0608 130.25 33.2336C128.631 34.383 126.614 34.9576 124.198 34.9576Z" fill="black"/>
<mask id="mask0_93_1828" style="mask-type:alpha" maskUnits="userSpaceOnUse" x="49" y="7" width="85" height="37">
<path d="M54.9756 34.5002H49.0295L58.318 8.46436H63.877L73.1303 34.5002H67.0787L65.2492 29.0116H56.8403L54.9756 34.5002ZM60.3587 18.6676L58.4939 24.2266H63.6307L61.766 18.6676C61.6253 18.2219 61.4845 17.7646 61.3438 17.2954C61.2031 16.8263 61.1092 16.4393 61.0623 16.1344C61.0154 16.4393 60.9216 16.8263 60.7809 17.2954C60.6636 17.7411 60.5229 18.1985 60.3587 18.6676ZM73.9252 25.3877C73.9252 23.605 74.2771 22.0335 74.9808 20.6731C75.7079 19.3126 76.7047 18.2454 77.9714 17.4714C79.2614 16.6973 80.7274 16.3103 82.3693 16.3103C83.7532 16.3103 84.9377 16.5918 85.9229 17.1547C86.9314 17.7176 87.6234 18.4565 87.9987 19.3713L87.4709 19.7231L87.8931 16.9084H92.9948V33.3744C92.9948 35.4619 92.6077 37.2563 91.8337 38.7574C91.0597 40.2821 89.9572 41.4431 88.5264 42.2406C87.0956 43.0616 85.3716 43.472 83.3544 43.472C80.657 43.472 78.4639 42.7449 76.7751 41.2907C75.0863 39.8599 74.1129 37.9013 73.8549 35.415H79.3435C79.3904 36.4001 79.7657 37.1625 80.4694 37.7019C81.1731 38.2649 82.123 38.5463 83.3193 38.5463C84.6328 38.5463 85.6648 38.1828 86.4154 37.4557C87.1895 36.7285 87.5765 35.7434 87.5765 34.5002V30.7708L88.1746 31.2282C87.7993 32.1429 87.0722 32.8818 85.9932 33.4447C84.9143 34.0077 83.6711 34.2891 82.2638 34.2891C80.6219 34.2891 79.1676 33.9138 77.901 33.1633C76.6578 32.4127 75.6844 31.3689 74.9808 30.0319C74.2771 28.6949 73.9252 27.1469 73.9252 25.3877ZM79.3787 25.2469C79.3787 26.0913 79.5546 26.8419 79.9065 27.4987C80.2583 28.132 80.7391 28.6363 81.349 29.0116C81.9588 29.3869 82.6625 29.5745 83.46 29.5745C84.281 29.5745 84.9964 29.3986 85.6062 29.0468C86.2395 28.6715 86.7203 28.1672 87.0487 27.5339C87.4006 26.8771 87.5765 26.1148 87.5765 25.2469C87.5765 24.3791 87.4006 23.6402 87.0487 23.0304C86.7203 22.3971 86.2395 21.9045 85.6062 21.5527C84.9964 21.2008 84.2692 21.0249 83.4248 21.0249C82.6273 21.0249 81.9236 21.2008 81.3138 21.5527C80.704 21.9045 80.2231 22.3971 79.8713 23.0304C79.5429 23.6637 79.3787 24.4025 79.3787 25.2469ZM97.0695 34.5002V16.9084H102.488V34.5002H97.0695ZM99.7434 14.1641C98.8755 14.1641 98.1367 13.8709 97.5268 13.2845C96.9405 12.6747 96.6473 11.9358 96.6473 11.0679C96.6473 10.2001 96.9405 9.47296 97.5268 8.88656C98.1367 8.30017 98.8755 8.00697 99.7434 8.00697C100.588 8.00697 101.303 8.30017 101.89 8.88656C102.499 9.47296 102.804 10.2001 102.804 11.0679C102.804 11.9358 102.499 12.6747 101.89 13.2845C101.303 13.8709 100.588 14.1641 99.7434 14.1641ZM111.971 34.5002H106.553V7.97179H111.971V34.5002ZM124.198 34.9576C122.439 34.9576 120.868 34.5589 119.484 33.7614C118.123 32.9639 117.044 31.8732 116.247 30.4893C115.473 29.082 115.086 27.4752 115.086 25.6691C115.086 23.8396 115.461 22.2329 116.212 20.849C116.986 19.4416 118.053 18.3392 119.413 17.5417C120.774 16.7442 122.333 16.3455 124.093 16.3455C125.946 16.3455 127.541 16.7325 128.878 17.5065C130.215 18.2571 131.247 19.3361 131.974 20.7434C132.701 22.1273 133.064 23.781 133.064 25.7043V27.0765L117.936 27.1469L118.006 23.8044H127.681C127.681 22.8662 127.365 22.1273 126.731 21.5878C126.098 21.0249 125.23 20.7434 124.128 20.7434C123.213 20.7434 122.462 20.9194 121.876 21.2712C121.313 21.623 120.891 22.1742 120.609 22.9248C120.328 23.652 120.187 24.5902 120.187 25.7395C120.187 27.3814 120.516 28.6011 121.172 29.3986C121.853 30.1726 122.896 30.5597 124.304 30.5597C125.336 30.5597 126.192 30.3837 126.872 30.0319C127.552 29.6801 127.986 29.1875 128.174 28.5542H133.135C132.83 30.501 131.868 32.0608 130.25 33.2336C128.631 34.383 126.614 34.9576 124.198 34.9576Z" fill="black"/>
</mask>
<g mask="url(#mask0_93_1828)">
<path d="M42.9804 20.4922C77.3754 8.31062 91.1692 49.081 142.187 6.3401L147.416 40.4595L52.1512 55.0616L42.9804 20.4922Z" fill="#131F81"/>
</g>
</svg>
