<svg width="24" height="24" viewBox="0 0 24 24" fill="none" xmlns="http://www.w3.org/2000/svg">
<path fill-rule="evenodd" clip-rule="evenodd" d="M11 1.5C16.5 1.5 18.5 5 18.5 8.5C18.5 12 16 15.5 12.5 15.5C11.3289 15.5 10.4287 15.1275 9.73777 14.55L9.05526 17.279C9.01845 17.4262 8.97329 17.5712 8.92 17.7133L7.67556 21.0318C7.56996 21.3134 7.30075 21.5 7 21.5C6.72386 21.5 6.5 21.2761 6.5 21V18.4848C6.5 17.8307 6.58022 17.1791 6.73886 16.5446L7.96813 11.6256C7.58057 10.3489 7.5 9.10214 7.5 8.5C7.5 7 8.5 6 10.0021 6C11.5122 6 11.1567 7.52331 10.6642 9.15941L10.5108 9.66317C10.2685 10.4561 10.0354 11.2418 10.0054 11.862L10.0021 11.9923C10.0021 12.9453 10.7747 13.7178 11.7276 13.7178C11.9214 13.7178 12.1137 13.6851 12.2967 13.6212C14.4322 12.8751 15.5 11.1681 15.5 8.5L15.493 8.2727C15.3991 6.6746 14.3333 3.5 11 3.5C8.5 3.5 5.5 5.5 5.5 8.5C5.5 9.83333 5.83333 10.8333 6.5 11.5L6 13.5C4.33333 12.5 3.5 10.8333 3.5 8.5C3.5 5 6.5 1.5 11 1.5Z" stroke="black" stroke-linecap="round" stroke-linejoin="round"/>
</svg>
