<svg width="24" height="22" viewBox="0 0 24 22" fill="none" xmlns="http://www.w3.org/2000/svg">
<path d="M4.54649 19.5128C4.54649 19.71 4.58532 19.9051 4.66075 20.0872C4.73618 20.2694 4.84674 20.4348 4.98612 20.5742C5.1255 20.7136 5.29097 20.8241 5.47308 20.8996C5.65519 20.975 5.85037 21.0138 6.04748 21.0138C6.44557 21.0138 6.82735 20.8557 7.10884 20.5742C7.24822 20.4348 7.35878 20.2694 7.43421 20.0872C7.50964 19.9051 7.54847 19.71 7.54847 19.5128C7.54847 19.1148 7.39033 18.733 7.10884 18.4515C6.82735 18.17 6.44557 18.0119 6.04748 18.0119C5.64939 18.0119 5.26761 18.17 4.98612 18.4515C4.70463 18.733 4.54649 19.1148 4.54649 19.5128ZM18.0554 19.5128C18.0554 19.71 18.0942 19.9051 18.1696 20.0872C18.2451 20.2694 18.3556 20.4348 18.495 20.5742C18.6344 20.7136 18.7999 20.8241 18.982 20.8996C19.1641 20.975 19.3593 21.0138 19.5564 21.0138C19.9545 21.0138 20.3362 20.8557 20.6177 20.5742C20.7571 20.4348 20.8677 20.2694 20.9431 20.0872C21.0185 19.9051 21.0574 19.71 21.0574 19.5128C21.0574 19.1148 20.8992 18.733 20.6177 18.4515C20.3362 18.17 19.9545 18.0119 19.5564 18.0119C19.1583 18.0119 18.7765 18.17 18.495 18.4515C18.2135 18.733 18.0554 19.1148 18.0554 19.5128ZM0 0.750494C0 0.949537 0.0790697 1.14043 0.219815 1.28117C0.36056 1.42192 0.551451 1.50099 0.750494 1.50099H2.31002L3.24213 5.48761L4.54649 12.0079C4.54649 12.0619 4.57201 12.1085 4.57801 12.161L3.81401 15.5983C3.78931 15.708 3.78965 15.8218 3.815 15.9313C3.84036 16.0409 3.89007 16.1433 3.96045 16.231C4.03083 16.3187 4.12006 16.3894 4.22152 16.4378C4.32298 16.4863 4.43406 16.5112 4.54649 16.5109H21.5737C21.7727 16.5109 21.9636 16.4318 22.1044 16.2911C22.2451 16.1503 22.3242 15.9594 22.3242 15.7604C22.3242 15.5613 22.2451 15.3704 22.1044 15.2297C21.9636 15.0889 21.7727 15.0099 21.5737 15.0099H5.48311L5.82684 13.4639C5.90189 13.4759 5.96943 13.5089 6.04748 13.5089H19.729C20.5575 13.5089 21.0574 13.3453 21.4566 12.3832L23.8942 4.90523C24.3175 3.56485 23.3884 3.00198 22.5583 3.00198H4.54649C4.42942 3.00198 4.32735 3.0425 4.21778 3.06802L3.63539 0.579381C3.59678 0.414503 3.50355 0.267528 3.37084 0.162342C3.23813 0.0571561 3.07375 -5.73381e-05 2.90441 4.312e-08H0.750494C0.551451 4.312e-08 0.36056 0.0790699 0.219815 0.219815C0.0790697 0.36056 0 0.551451 0 0.750494ZM4.57651 4.50296H22.4458L20.0502 11.8563C20.0217 11.9208 19.9977 11.9674 19.9797 11.9989C19.9301 12.0034 19.8521 12.0079 19.729 12.0079H6.04748V11.8593L6.01896 11.7137L4.57651 4.50296Z" fill="black"/>
</svg>
