<svg width="22" height="22" viewBox="0 0 22 22" fill="none" xmlns="http://www.w3.org/2000/svg">
<path d="M16.785 3.91533C16.5279 3.91533 16.2765 3.99157 16.0628 4.13442C15.849 4.27726 15.6824 4.48029 15.584 4.71784C15.4856 4.95538 15.4598 5.21677 15.51 5.46894C15.5601 5.72112 15.684 5.95276 15.8658 6.13456C16.0476 6.31637 16.2792 6.44019 16.5314 6.49035C16.7836 6.54051 17.045 6.51476 17.2825 6.41637C17.52 6.31798 17.7231 6.15135 17.8659 5.93757C18.0088 5.72378 18.085 5.47244 18.085 5.21533C18.085 4.87054 17.948 4.53988 17.7042 4.29609C17.4604 4.05229 17.1298 3.91533 16.785 3.91533ZM21.7683 6.53699C21.7473 5.63815 21.5789 4.74885 21.27 3.90449C20.9945 3.18205 20.5658 2.52788 20.0133 1.98699C19.4769 1.4317 18.8212 1.00568 18.0958 0.741159C17.2537 0.422833 16.3634 0.250636 15.4633 0.231992C14.315 0.166992 13.9467 0.166992 11 0.166992C8.05334 0.166992 7.68501 0.166992 6.53667 0.231992C5.63659 0.250636 4.74629 0.422833 3.90417 0.741159C3.18015 1.00836 2.52502 1.43402 1.98667 1.98699C1.43138 2.52343 1.00536 3.17914 0.740838 3.90449C0.422513 4.74661 0.250316 5.63691 0.231672 6.53699C0.166672 7.68533 0.166672 8.05366 0.166672 11.0003C0.166672 13.947 0.166672 14.3153 0.231672 15.4637C0.250316 16.3637 0.422513 17.254 0.740838 18.0962C1.00536 18.8215 1.43138 19.4772 1.98667 20.0137C2.52502 20.5666 3.18015 20.9923 3.90417 21.2595C4.74629 21.5778 5.63659 21.75 6.53667 21.7687C7.68501 21.8337 8.05334 21.8337 11 21.8337C13.9467 21.8337 14.315 21.8337 15.4633 21.7687C16.3634 21.75 17.2537 21.5778 18.0958 21.2595C18.8212 20.995 19.4769 20.5689 20.0133 20.0137C20.5683 19.4748 20.9974 18.82 21.27 18.0962C21.5789 17.2518 21.7473 16.3625 21.7683 15.4637C21.7683 14.3153 21.8333 13.947 21.8333 11.0003C21.8333 8.05366 21.8333 7.68533 21.7683 6.53699ZM19.8183 15.3337C19.8105 16.0213 19.6859 16.7027 19.45 17.3487C19.277 17.8201 18.9992 18.2461 18.6375 18.5945C18.2861 18.9525 17.861 19.2298 17.3917 19.407C16.7457 19.6429 16.0643 19.7674 15.3767 19.7753C14.2933 19.8295 13.8925 19.8403 11.0433 19.8403C8.19417 19.8403 7.79334 19.8403 6.71001 19.7753C5.99597 19.7887 5.28498 19.6787 4.60834 19.4503C4.1596 19.2641 3.75397 18.9875 3.41667 18.6378C3.0571 18.2898 2.78275 17.8634 2.61501 17.392C2.35052 16.7367 2.20382 16.0399 2.18167 15.3337C2.18167 14.2503 2.11667 13.8495 2.11667 11.0003C2.11667 8.15116 2.11667 7.75033 2.18167 6.66699C2.18653 5.96397 2.31487 5.26727 2.56084 4.60866C2.75156 4.1514 3.04429 3.74379 3.41667 3.41699C3.7458 3.04451 4.15257 2.74868 4.60834 2.55033C5.26869 2.31204 5.96467 2.1875 6.66667 2.18199C7.75001 2.18199 8.15084 2.11699 11 2.11699C13.8492 2.11699 14.25 2.11699 15.3333 2.18199C16.021 2.18988 16.7024 2.31443 17.3483 2.55033C17.8406 2.73303 18.2825 3.03008 18.6375 3.41699C18.9925 3.74977 19.2699 4.15662 19.45 4.60866C19.6908 5.26834 19.8154 5.96475 19.8183 6.66699C19.8725 7.75033 19.8833 8.15116 19.8833 11.0003C19.8833 13.8495 19.8725 14.2503 19.8183 15.3337ZM11 5.44283C9.9013 5.44497 8.82788 5.77273 7.91538 6.3847C7.00288 6.99666 6.29225 7.86537 5.87328 8.88106C5.4543 9.89675 5.34579 11.0138 5.56145 12.0912C5.77711 13.1685 6.30726 14.1577 7.08492 14.9339C7.86258 15.71 8.85285 16.2383 9.9306 16.4518C11.0084 16.6654 12.1252 16.5547 13.1401 16.1337C14.155 15.7128 15.0223 15.0005 15.6325 14.0868C16.2427 13.1731 16.5683 12.099 16.5683 11.0003C16.5698 10.2692 16.4266 9.54498 16.1472 8.86936C15.8677 8.19374 15.4574 7.58004 14.9399 7.06355C14.4225 6.54706 13.808 6.13798 13.1318 5.85983C12.4556 5.58169 11.7311 5.43997 11 5.44283ZM11 14.6078C10.2865 14.6078 9.58904 14.3962 8.99579 13.9999C8.40254 13.6035 7.94015 13.04 7.66711 12.3809C7.39407 11.7217 7.32263 10.9963 7.46182 10.2965C7.60102 9.59675 7.9446 8.95396 8.44912 8.44944C8.95364 7.94492 9.59643 7.60134 10.2962 7.46214C10.996 7.32295 11.7214 7.39439 12.3805 7.66743C13.0397 7.94047 13.6031 8.40286 13.9995 8.99611C14.3959 9.58936 14.6075 10.2868 14.6075 11.0003C14.6075 11.4741 14.5142 11.9432 14.3329 12.3809C14.1516 12.8185 13.8859 13.2162 13.5509 13.5512C13.2159 13.8862 12.8182 14.1519 12.3805 14.3332C11.9429 14.5145 11.4737 14.6078 11 14.6078Z" fill="black"/>
</svg>
